<?xml version="1.0" standalone="no"?>
<!DOCTYPE svg PUBLIC "-//W3C//DTD SVG 1.1//EN" "http://www.w3.org/Graphics/SVG/1.1/DTD/svg11.dtd" >
<svg>
<metadata>
Created by FontForge 20090622 at Mon Nov 23 13:20:14 2015
 By deploy user
Copyright &#194;&#169; 2012-2014 Durotype, www.durotype.com. All rights reserved.
</metadata>
<defs>
<font id="AspiraNarW01-Heavy" horiz-adv-x="1693" >
  <font-face 
    font-family="AspiraNarW01-Heavy"
    font-weight="800"
    font-stretch="condensed"
    units-per-em="3333"
    panose-1="0 0 0 0 0 0 0 0 0 0"
    ascent="2666"
    descent="-667"
    x-height="1630"
    cap-height="2318"
    bbox="-150 -725 3746 3195"
    underline-thickness="166"
    underline-position="-417"
    unicode-range="U+0020-U+2122"
  />
<missing-glyph horiz-adv-x="1994" 
d="M181 2355h1632v-2355h-1632v2355zM899 1178l-555 857v-1715zM1552 168l-555 858l-555 -858h1110zM1552 2187h-1110l555 -858zM1649 2035l-554 -857l554 -858v1715z" />
    <glyph glyph-name=".notdef" horiz-adv-x="1994" 
d="M181 2355h1632v-2355h-1632v2355zM899 1178l-555 857v-1715zM1552 168l-555 858l-555 -858h1110zM1552 2187h-1110l555 -858zM1649 2035l-554 -857l554 -858v1715z" />
    <glyph glyph-name=".null" horiz-adv-x="0" 
 />
    <glyph glyph-name="nonmarkingreturn" horiz-adv-x="1111" 
 />
    <glyph glyph-name="space" unicode=" " horiz-adv-x="725" 
 />
    <glyph glyph-name="exclam" unicode="!" horiz-adv-x="973" 
d="M487 -33q-62 0 -116.5 24t-95.5 65t-64.5 97t-23.5 119t23.5 119t64.5 97.5t95.5 65.5t116.5 24t116.5 -24t95 -65.5t64 -97.5t23.5 -119t-23.5 -119t-64 -97t-95 -65t-116.5 -24zM223 2318h528l-49 -1553h-430z" />
    <glyph glyph-name="quotedbl" unicode="&#x22;" horiz-adv-x="1397" 
d="M1277 2177q0 -21 -3 -49.5t-9.5 -72.5t-17.5 -107.5l-27.5 -153l-38.5 -209.5l-51 -277h-205l-51 277l-38.5 210t-27 153.5t-17 107.5t-9.5 73t-3 50q0 60 20 105.5t54.5 77t79.5 47.5t95 16q48 0 93 -15.5t79.5 -46.5t55.5 -77.5t21 -108.5zM268 1308l-51 277l-38.5 210
l-28 153.5t-18 107.5t-9.5 73t-3 50q0 60 20.5 105.5t55 77t79.5 47.5t95 16q49 0 94 -15.5t79.5 -46.5t55 -77.5t20.5 -108.5q0 -21 -3 -49.5t-9.5 -72.5t-17.5 -107.5l-27.5 -153l-39 -209.5l-51.5 -277h-203z" />
    <glyph glyph-name="numbersign" unicode="#" horiz-adv-x="1884" 
d="M1263 0h-335l93 649h-282l-93 -649h-335l93 649h-300v336h348l51 351h-317v336h365l93 646h335l-93 -646h283l93 646h334l-93 -646h275v-336h-323l-51 -351h284v-336h-332zM787 985h283l50 351h-282z" />
    <glyph glyph-name="dollar" unicode="$" horiz-adv-x="1799" 
d="M1444 1657q-123 82 -253 126t-245 44q-66 0 -119.5 -15t-91 -43t-58 -67.5t-20.5 -88.5q0 -60 29 -101t78.5 -70t115.5 -50.5t140.5 -42l153 -44t153 -57t140.5 -80.5t115.5 -114.5t78.5 -159.5t29 -216q0 -160 -48.5 -283t-133.5 -210.5t-201.5 -139.5t-251.5 -69v-310
h-341v319q-93 16 -179 46.5t-163.5 71t-147 90t-130.5 104.5l221 356q68 -49 139 -89t143 -69t144.5 -45t143.5 -16q70 0 124.5 15t91 42.5t55.5 66.5t19 86q0 59 -28.5 100.5t-77.5 72t-114.5 53t-139 44.5l-151 46.5t-151 58.5t-139 80.5t-114.5 113t-77.5 156
t-28.5 209.5q0 148 44 265.5t122 204t184.5 141t230.5 77.5v317h332v-312q169 -24 321 -94t273 -173z" />
    <glyph glyph-name="percent" unicode="%" horiz-adv-x="2694" 
d="M599 952q-119 0 -212 45.5t-157.5 133t-98.5 216t-34 294.5t34 295.5t98.5 218t157.5 134.5t212 46t212 -46t157.5 -134.5t98 -217.5t33.5 -295t-33.5 -294.5t-98 -216.5t-157.5 -133.5t-212 -45.5zM599 1251q76 0 117.5 100.5t41.5 295.5q0 188 -40.5 287.5t-118.5 99.5
q-79 0 -119 -99.5t-40 -286.5q0 -195 41 -296t118 -101zM2096 -17q-119 0 -212.5 45.5t-158 133t-98 216t-33.5 294.5t34 295.5t98.5 218t157.5 134.5t212 46q118 0 211 -46t157.5 -134.5t98.5 -218t34 -295.5q0 -165 -34 -293.5t-98 -216.5t-157.5 -133.5t-211.5 -45.5z
M2096 282q75 0 116 100.5t41 295.5q0 188 -39.5 287.5t-117.5 99.5q-79 0 -119 -99.5t-40 -286.5q0 -195 41 -296t118 -101zM1820 2384h340l-1287 -2450h-339z" />
    <glyph glyph-name="ampersand" unicode="&#x26;" horiz-adv-x="2156" 
d="M1453 183q-67 -49 -138 -88.5t-145 -68t-151.5 -44t-156.5 -15.5q-150 0 -277.5 54.5t-219.5 149t-144 223t-52 275.5q0 110 28 201t76 166.5t111 139t132 117.5q-42 59 -75 121.5t-55.5 125.5t-34 125t-11.5 120q0 115 44 218t121.5 180t183.5 122.5t229 45.5t226 -46
t176.5 -125.5t114.5 -186t41 -228.5q0 -96 -24.5 -174t-66.5 -143.5t-98 -119.5t-118 -102l333 -381q67 95 117.5 191.5t81.5 181.5l393 -158q-41 -127 -118 -268.5t-185 -277.5l448 -514h-630zM763 1800q0 -64 34 -124t88 -124q37 29 68.5 58t54 60t35 64t12.5 69
q0 35 -11 64t-30.5 49.5t-46 32t-56.5 11.5q-31 0 -58 -11.5t-47 -32.5t-31.5 -50.5t-11.5 -65.5zM795 958q-36 -31 -65.5 -64t-50.5 -69.5t-33 -77.5t-12 -87q0 -57 18 -103.5t51.5 -79t80.5 -50t105 -17.5q74 0 146 26.5t141 73.5z" />
    <glyph glyph-name="quotesingle" unicode="'" horiz-adv-x="739" 
d="M268 1308l-51 277l-38.5 210l-28 153.5t-18 107.5t-9.5 73t-3 50q0 60 20.5 105.5t55 77t79.5 47.5t95 16q49 0 94 -15.5t79.5 -46.5t55 -77.5t20.5 -108.5q0 -21 -3 -49.5t-9.5 -72.5t-17.5 -107.5l-27.5 -153l-39 -209.5l-51.5 -277h-203z" />
    <glyph glyph-name="parenleft" unicode="(" horiz-adv-x="1010" 
d="M945 2177q-70 -71 -122.5 -163t-90 -196.5t-62.5 -218t-39.5 -229t-20 -228t-5.5 -215.5t5.5 -216t20 -228t39.5 -229t62.5 -218.5t90 -196t122.5 -162.5l-288 -245q-164 138 -270 309.5t-168.5 365t-87 402t-24.5 418.5q0 140 10.5 279.5t35 275t66 265t102.5 249
t144 227t192 199.5z" />
    <glyph glyph-name="parenright" unicode=")" horiz-adv-x="1011" 
d="M65 -323q70 71 122 162.5t90 196t62.5 218.5t39 229t20.5 228t6 216t-6 215.5t-20.5 228t-39 229t-62.5 218t-90 196.5t-122 163l289 245q109 -92 192 -199.5t144 -227t102.5 -249t66 -265t35 -275t10.5 -279.5q0 -210 -24.5 -418.5t-87 -402t-169 -365t-269.5 -309.5z
" />
    <glyph glyph-name="asterisk" unicode="*" horiz-adv-x="1456" 
d="M1164 2228l-187 -335h368v-294h-370l186 -337l-252 -143l-181 325l-181 -325l-255 146l185 334h-366v294h366l-186 335l256 148l180 -328l182 328z" />
    <glyph glyph-name="plus" unicode="+" horiz-adv-x="1779" 
d="M686 773h-587v405h587v604h404v-604h590v-405h-590v-608h-404v608z" />
    <glyph glyph-name="comma" unicode="," horiz-adv-x="852" 
d="M21 -422l90.5 50.5t87 61t65 79t25.5 103.5q0 40 -12.5 73t-31 62.5t-40 57.5t-40 59.5t-31 68.5t-12.5 84q0 58 21 112t59 96t92.5 67.5t121.5 25.5q77 0 134.5 -33t96 -88.5t57.5 -128.5t19 -152q0 -128 -46.5 -256t-129 -238.5t-195 -194.5t-244.5 -124l-87 215v0z
" />
    <glyph glyph-name="hyphen" unicode="-" horiz-adv-x="1171" 
d="M165 1075h841v-388h-841v388z" />
    <glyph glyph-name="period" unicode="." horiz-adv-x="842" 
d="M421 -33q-62 0 -116.5 24t-95 65t-64 97t-23.5 119t23.5 119t64 97.5t95 65.5t116.5 24t116.5 -24t95 -65.5t64 -97.5t23.5 -119t-23.5 -119t-64 -97t-95 -65t-116.5 -24z" />
    <glyph glyph-name="slash" unicode="/" horiz-adv-x="1433" 
d="M952 2399h409l-875 -2666h-409z" />
    <glyph glyph-name="zero" unicode="0" horiz-adv-x="1898" 
d="M949 -33q-194 0 -347 76t-258.5 222.5t-161 361.5t-55.5 493t55.5 494t161.5 364.5t259 226t347 77.5t346.5 -77t258 -225.5t161 -364.5t55.5 -494t-55.5 -493t-160.5 -362t-258 -223t-348 -76zM949 425q148 0 228.5 179.5t80.5 526.5q0 166 -19.5 295t-58.5 216.5
t-97 133t-134 45.5t-133.5 -45.5t-96.5 -133t-58.5 -216t-19.5 -294.5q0 -173 20.5 -305.5t60 -221.5t97 -134.5t130.5 -45.5z" />
    <glyph glyph-name="one" unicode="1" horiz-adv-x="1559" 
d="M1482 0h-1317v457h424v1087h-419v394q59 0 120 8t118.5 25t109.5 43t93.5 62t70 81.5t38.5 102.5h372v-1803h390v-457z" />
    <glyph glyph-name="two" unicode="2" horiz-adv-x="1732" 
d="M1598 0h-1466v351q49 119 116 216.5t142.5 179.5t155.5 151l156 132l143.5 123t118.5 122t80.5 129.5t29.5 146.5q0 62 -19.5 113t-56 87.5t-88 56.5t-115.5 20q-61 0 -120.5 -18t-114 -49.5t-101.5 -73.5t-82 -90l-288 278q53 88 130 163t173.5 129t210 84.5t238.5 30.5
q154 0 287 -47.5t231.5 -137.5t154.5 -221t56 -297q0 -119 -28.5 -218.5t-76 -184t-110 -155t-130 -132.5t-136 -116.5l-129 -106.5t-107.5 -103t-72 -106h817v-457z" />
    <glyph glyph-name="three" unicode="3" horiz-adv-x="1724" 
d="M331 632q45 -48 96.5 -88t108.5 -69t117 -45t121 -16q70 0 130.5 20.5t105 58.5t70 91t25.5 119q0 55 -18 99t-48.5 77.5t-72 56.5t-88.5 35q-33 9 -76 14.5t-89.5 9t-93.5 5t-89 1.5v371q39 0 84.5 1t92 5t90.5 12t81 23q30 12 56 29.5t46 42.5t31.5 56.5t11.5 72.5
q0 48 -17 88.5t-51 69.5t-83.5 45t-114.5 16q-57 0 -109.5 -12.5t-101 -35t-93.5 -53t-86 -66.5l-233 318q52 61 123.5 115.5t159.5 95t189.5 64t214.5 23.5q150 0 280 -44t226 -126.5t151 -200.5t55 -265q0 -85 -18.5 -153t-52 -122.5t-80.5 -95.5t-103 -72q63 -27 122 -73
t104.5 -112.5t72.5 -153t27 -194.5q0 -117 -32 -214.5t-88 -175.5t-132 -136.5t-164 -98t-184 -59t-192 -19.5q-106 0 -210.5 24t-202 70.5t-184.5 114t-158 155.5z" />
    <glyph glyph-name="four" unicode="4" horiz-adv-x="1840" 
d="M970 0v441h-924v322l1008 1497h399v-1413h297v-406h-304v-441h-476zM971 847v644l-443 -644h443z" />
    <glyph glyph-name="five" unicode="5" horiz-adv-x="1732" 
d="M750 1812l-61 -373q64 33 132.5 46t128.5 13q74 0 152.5 -18.5t152 -57t139 -98t115 -140t78 -184t28.5 -230.5q0 -188 -63 -336.5t-171.5 -252.5t-255.5 -159t-315 -55q-120 0 -227.5 27t-200.5 74t-171 109.5t-138 134.5l256 316q97 -103 207 -159t225 -56q83 0 148 28
t109.5 75.5t68 110.5t23.5 134q0 75 -25.5 135.5t-72 103.5t-110.5 66t-142 23q-96 0 -176.5 -34.5t-157.5 -92.5l-251 204l171 1083h1177v-437h-773z" />
    <glyph glyph-name="six" unicode="6" horiz-adv-x="1757" 
d="M1019 1495q124 0 239.5 -52t204.5 -148.5t142.5 -235.5t53.5 -313q0 -172 -54 -315t-154 -246t-242 -160.5t-317 -57.5q-137 0 -247.5 35.5t-196 100t-147 156t-101.5 203t-59 240t-19 268.5q0 180 30 347.5t89 313.5t146.5 266t201.5 205.5t254.5 132.5t305.5 47
q81 0 156 -12.5t144 -38.5l-60 -412q-44 8 -96.5 13t-93.5 5q-113 0 -208 -37t-168 -103t-122.5 -158t-70.5 -202l2 -1q75 76 175 117.5t212 41.5zM1196 739q0 74 -21.5 134t-60.5 102t-93 65t-118 23q-67 0 -122.5 -24t-95.5 -67.5t-62 -103.5t-22 -132t21.5 -133
t61 -105.5t94.5 -70t122 -25.5q65 0 119.5 24.5t93.5 68.5t61 106.5t22 137.5z" />
    <glyph glyph-name="seven" unicode="7" horiz-adv-x="1604" 
d="M1566 1868q-146 -216 -268 -433.5t-219.5 -446.5t-171 -473.5t-122.5 -514.5h-526q42 259 105 494t148.5 455.5t193.5 431t240 419.5h-867v449h1487v-381z" />
    <glyph glyph-name="eight" unicode="8" horiz-adv-x="1783" 
d="M894 2282q150 0 273.5 -50t212 -135.5t137.5 -200.5t49 -244q0 -81 -18 -146.5t-45 -116t-59 -87t-59 -59.5q43 -30 93 -77.5t92.5 -114.5t71 -154.5t28.5 -197.5q0 -102 -26.5 -196.5t-76 -175.5t-119.5 -147.5t-156.5 -114t-188 -73t-212.5 -25.5q-112 0 -213.5 26
t-188 73.5t-156 113.5t-118.5 147t-75.5 174.5t-26.5 194.5q0 110 29 198t72.5 155.5t94 115.5t93.5 78q-29 25 -61 62t-60 88t-46 115.5t-18 145.5q0 86 22.5 166t64.5 149.5t102 127.5t135 99t164 63.5t189 22.5zM893 395q66 0 121 23.5t95 64.5t62 97.5t22 122.5
q0 64 -21.5 121t-61 99t-95 66.5t-124.5 24.5t-124.5 -24.5t-95.5 -66.5t-61.5 -99t-21.5 -122q0 -71 24.5 -128t66 -96.5t97 -61t117.5 -21.5zM890 1405q48 0 87.5 17.5t68 48.5t44.5 72.5t16 88.5q0 48 -16 88t-44.5 69.5t-68 46t-86.5 16.5t-86 -16.5t-67 -46
t-43.5 -70.5t-15.5 -90q0 -50 16 -91.5t44.5 -71t67 -45.5t83.5 -16z" />
    <glyph glyph-name="nine" unicode="9" horiz-adv-x="1758" 
d="M368 430q45 -8 97.5 -13t92.5 -5q113 0 208 37t168 103.5t122.5 158t70.5 201.5l-2 1q-75 -76 -175 -117.5t-212 -41.5q-124 0 -239 52t-204 149t-142.5 235.5t-53.5 312.5q0 172 54 315t154 246t241.5 160.5t317.5 57.5q137 0 247 -35.5t195.5 -100t147.5 -155.5
t101.5 -202.5t58.5 -240.5t19 -269q0 -180 -30 -347.5t-89 -313t-146.5 -265.5t-201.5 -206t-254.5 -133t-305.5 -47q-81 0 -156 12.5t-143 38.5zM561 1510q0 -74 21.5 -134t60.5 -102t92.5 -65t118.5 -23q67 0 122.5 24t95.5 67.5t62 103.5t22 132t-21.5 133t-61 105.5
t-94.5 70t-121 25.5q-65 0 -119.5 -24.5t-94 -68.5t-61.5 -106.5t-22 -137.5z" />
    <glyph glyph-name="colon" unicode=":" horiz-adv-x="898" 
d="M448 -33q-62 0 -116 24t-94.5 65t-64 97t-23.5 119t23.5 119t64 97.5t94.5 65.5t116 24t117 -24t95.5 -65.5t64 -97.5t23.5 -119t-23.5 -119t-64 -97t-95.5 -65t-117 -24zM448 1029q-62 0 -116 24t-94.5 65t-64 97t-23.5 119t23.5 119t64 97.5t94.5 65.5t116 24t117 -24
t95.5 -65.5t64 -97.5t23.5 -119t-23.5 -119t-64 -97t-95.5 -65t-117 -24z" />
    <glyph glyph-name="semicolon" unicode=";" horiz-adv-x="915" 
d="M56 -422l90.5 50.5t87 61t65 79t25.5 103.5q0 40 -12.5 73t-30.5 62.5t-40 57.5t-40 59.5t-30.5 68.5t-12.5 84q0 58 20.5 112t59 96t92.5 67.5t121 25.5q77 0 134.5 -33t96 -88.5t57.5 -128.5t19 -152q0 -128 -46.5 -256t-129 -238.5t-195 -194.5t-244.5 -124zM158 1334
q0 63 23.5 119t64 97.5t95 65.5t116.5 24t116.5 -24t95 -65.5t64 -97.5t23.5 -119t-23.5 -119t-64 -97t-95 -65t-116.5 -24t-116.5 24t-95 65t-64 97t-23.5 119z" />
    <glyph glyph-name="less" unicode="&#x3c;" horiz-adv-x="1893" 
d="M1699 1845v-423l-1025 -448l1025 -449v-423l-1600 697v350z" />
    <glyph glyph-name="equal" unicode="=" horiz-adv-x="1927" 
d="M173 818h1582v-406h-1582v406zM173 1535h1582v-406h-1582v406z" />
    <glyph glyph-name="greater" unicode="&#x3e;" horiz-adv-x="1893" 
d="M194 1422v423l1600 -696v-350l-1600 -697v423l1027 449z" />
    <glyph glyph-name="question" unicode="?" horiz-adv-x="1667" 
d="M556 765q0 133 20.5 229t55 165t78 117t89.5 84t89.5 65t78 61.5t55.5 72.5t21 99q0 106 -68.5 166t-194.5 60q-65 0 -123.5 -17t-110 -47.5t-96.5 -73t-82 -93.5l-287 272q49 94 123 172.5t169 135t209 87.5t242 31q147 0 279.5 -43t233 -129.5t159.5 -216t59 -302.5
q0 -111 -24 -192.5t-63 -142t-89.5 -105t-102.5 -82.5l-102 -73.5t-89.5 -77.5t-63 -95t-23.5 -127h-442zM478 272q0 63 23.5 119t64 97.5t95 65.5t116.5 24t116.5 -24t95 -65.5t64 -97.5t23.5 -119t-23.5 -119t-64 -97t-95 -65t-116.5 -24t-116.5 24t-95 65t-64 97
t-23.5 119z" />
    <glyph glyph-name="at" unicode="@" horiz-adv-x="2660" 
d="M1962 394q52 0 95.5 36.5t74.5 107.5t48 175t17 240q0 184 -57.5 343t-164.5 276.5t-260 184.5t-344 67q-135 0 -256.5 -37t-224.5 -105t-186 -164t-141 -214t-89.5 -256t-31.5 -289q0 -213 62.5 -391t179 -306t283.5 -199t376 -71q94 0 204.5 17t218.5 59l62 -260
q-70 -27 -140.5 -44.5t-137 -28t-128 -14.5t-113.5 -4q-182 0 -341.5 41t-292.5 117.5t-237.5 186t-177 245t-111 295.5t-38.5 338q0 182 40 354.5t116.5 325.5t187 280t251.5 219t310 143t362 51q166 0 315.5 -38t277.5 -109t231 -172t175.5 -226t111.5 -272t39 -310
q0 -114 -19.5 -223t-58.5 -206.5t-96 -179t-132 -141t-167 -92.5t-201 -33q-53 0 -105.5 11t-98.5 38t-81 73.5t-52 118.5q-33 -56 -72 -105t-86.5 -85t-105 -57t-127.5 -21q-105 0 -185.5 46t-135 124.5t-82.5 182.5t-28 220q0 102 21.5 200.5t63.5 186.5t105 163
t146 129.5t185 85t224 30.5q61 0 127.5 -7.5t130.5 -20t120 -28t95 -31.5l-38.5 -269.5t-27 -202.5t-16 -151t-5.5 -115q0 -45 5 -87.5t20 -74.5t41.5 -51.5t69.5 -19.5zM1078 665q0 -58 9.5 -105.5t27.5 -81.5t44.5 -53t61.5 -19q45 0 85 31.5t73.5 87.5t60 134.5
t45.5 171.5q9 42 14.5 80t9 76t5.5 77t2 82q-23 7 -50 9.5t-43 2.5q-66 0 -128 -37t-110 -103t-77.5 -156.5t-29.5 -196.5z" />
    <glyph glyph-name="A" unicode="A" horiz-adv-x="2117" 
d="M1400 505h-709l-142 -505h-539l747 2318h598l757 -2318h-568zM1276 949l-234 813l-230 -813h464z" />
    <glyph glyph-name="B" unicode="B" horiz-adv-x="1952" 
d="M988 2318q185 0 324 -39.5t231.5 -116t139 -187.5t46.5 -253q0 -172 -67 -292.5t-200 -198.5q82 -26 153.5 -76.5t124.5 -121.5t84 -162.5t31 -199.5q0 -142 -53.5 -264.5t-152 -213t-237 -142t-307.5 -51.5h-879v2318h762zM739 976v-516h304q61 0 112.5 15.5t89 47
t59 80t21.5 114.5t-21.5 114.5t-61.5 80.5t-95.5 48t-124.5 16h-283zM739 1858v-452h224q51 0 95.5 14.5t78 43.5t52.5 73t19 104q0 58 -19 99.5t-53 67.5t-82 38t-105 12h-210z" />
    <glyph glyph-name="C" unicode="C" horiz-adv-x="2046" 
d="M2002 270q-73 -71 -167.5 -127t-201 -95t-220 -60t-224.5 -21q-157 0 -298.5 41t-262.5 116.5t-218 182t-165 238t-105 284.5t-37 321q0 170 38 325.5t107.5 289t168.5 242t220.5 185t263.5 118t298 41.5q109 0 219 -20.5t213.5 -60t197 -96.5t170.5 -130l-224 -355
q-120 88 -249.5 139t-266.5 51q-145 0 -260.5 -57t-196 -154.5t-123.5 -228t-43 -277.5q0 -144 41.5 -273.5t121 -227.5t195 -155.5t263.5 -57.5q73 0 143 14.5t135 39.5t125 59.5t115 75.5z" />
    <glyph glyph-name="D" unicode="D" horiz-adv-x="2164" 
d="M226 0v2318h770q173 0 318.5 -40.5t263 -115.5t206.5 -180t149 -233.5t90 -278t30 -311.5q0 -165 -31 -315t-92 -279t-151 -233.5t-207.5 -178t-262.5 -113.5t-316 -40h-767zM947 467q154 0 263.5 38.5t179.5 121.5t103 213t33 313q0 192 -35 325t-106 216t-179 120
t-253 37h-206v-1384h200z" />
    <glyph glyph-name="E" unicode="E" horiz-adv-x="1798" 
d="M226 2318h1431v-466h-911v-452h790v-463h-790v-471h931v-466h-1451v2318z" />
    <glyph glyph-name="F" unicode="F" horiz-adv-x="1748" 
d="M746 0h-520v2318h1435v-466h-915v-496h770v-464h-770v-892z" />
    <glyph glyph-name="G" unicode="G" horiz-adv-x="2245" 
d="M1191 853v418h991q0 -330 -70.5 -575t-201 -407t-315 -242t-413.5 -80q-182 0 -333 46.5t-270.5 128.5t-208.5 194t-148.5 243t-88.5 276t-29 292q0 172 38 328t107.5 289.5t168 242t220 185t263.5 118t298 41.5q109 0 219 -20.5t213.5 -60t197.5 -96.5t171 -130
l-224 -355q-118 88 -248 139t-269 51q-146 0 -261.5 -57t-195.5 -157t-122.5 -235t-42.5 -291q0 -88 15 -174.5t44.5 -165t75 -145t106.5 -115t138 -76t170 -27.5q91 0 172 28t143 81.5t101 131t45 176.5h-456z" />
    <glyph glyph-name="H" unicode="H" horiz-adv-x="2243" 
d="M226 2318h526v-915h738v915h527v-2318h-527v936h-738v-936h-526v2318z" />
    <glyph glyph-name="I" unicode="I" horiz-adv-x="979" 
d="M226 2318h527v-2318h-527v2318z" />
    <glyph glyph-name="J" unicode="J" horiz-adv-x="1625" 
d="M903 2318h514v-1610q0 -156 -48 -291t-139.5 -235t-226 -157.5t-306.5 -57.5q-107 0 -208 24.5t-190.5 77t-165 134.5t-132.5 196l342 260q24 -45 53.5 -82t65.5 -63.5t80 -41t97 -14.5q123 0 193.5 82.5t70.5 249.5v1528z" />
    <glyph glyph-name="K" unicode="K" horiz-adv-x="2083" 
d="M753 983v-983h-527v2318h527v-852h109l592 852h579l-739 -1077l838 -1241h-612l-662 983h-105z" />
    <glyph glyph-name="L" unicode="L" horiz-adv-x="1665" 
d="M226 2318h521v-1852h884v-466h-1405v2318z" />
    <glyph glyph-name="M" unicode="M" horiz-adv-x="2790" 
d="M845 2318l563 -1319l554 1319h558l82 -2318h-536l-42 1418h-2l-443 -1111h-368l-462 1105h-2l-47 -1412h-515l86 2318h574z" />
    <glyph glyph-name="N" unicode="N" horiz-adv-x="2276" 
d="M730 0h-504v2318h567l765 -1443l-10 1443h502v-2318h-576l-752 1422z" />
    <glyph glyph-name="O" unicode="O" horiz-adv-x="2457" 
d="M1228 -33q-160 0 -306 40.5t-271 115t-226 181.5t-172.5 239.5t-110.5 288.5t-39 329q0 175 39.5 331t111.5 288t174 238t227 180t270 113.5t304 39.5t304 -39.5t270 -113.5t226.5 -180t174 -238t111.5 -288t39 -330q0 -173 -39 -329t-110.5 -289t-173 -239.5
t-226.5 -181.5t-271 -115.5t-306 -40.5zM1228 439q129 0 237.5 52.5t187 148t122.5 228t44 292.5t-44 292.5t-123 227.5t-187 147t-237 52q-128 0 -236.5 -52t-187.5 -146.5t-123 -227t-44 -293.5q0 -160 44 -292.5t122.5 -228t187 -148t237.5 -52.5z" />
    <glyph glyph-name="P" unicode="P" horiz-adv-x="1914" 
d="M743 0h-517v2318h813q196 0 347.5 -57t255 -159.5t157.5 -244t54 -310.5q0 -174 -56.5 -319.5t-161.5 -250t-255 -162.5t-338 -58h-299v-757zM1004 1219q80 0 141 22t102.5 64t63 101.5t21.5 134.5q0 154 -85 236t-243 82h-261v-640h261z" />
    <glyph glyph-name="Q" unicode="Q" horiz-adv-x="2457" 
d="M1741 780q38 81 58 176t20 204q0 160 -44 292.5t-123 227.5t-187 147t-237 52q-128 0 -236.5 -52t-187.5 -146.5t-123 -227t-44 -293.5q0 -160 44 -292.5t122.5 -228t187 -148t237.5 -52.5q104 0 197 35l-296 341l328 292zM1754 94q-117 -62 -249 -94.5t-277 -32.5
q-160 0 -306 40.5t-271 115t-226 181.5t-172.5 239.5t-110.5 288.5t-39 329q0 175 39.5 331t111.5 288t174 238t227 180t270 113.5t304 39.5t304 -39.5t270 -113.5t226.5 -180t174 -238t111.5 -288t39 -330q0 -234 -68.5 -433t-192.5 -354l141 -161l-335 -286z" />
    <glyph glyph-name="R" unicode="R" horiz-adv-x="1988" 
d="M226 2318h804q189 0 338.5 -54.5t253.5 -153t159 -235.5t55 -302q0 -116 -27 -217.5t-78 -187t-125 -152.5t-167 -113l515 -903h-610l-422 816h-178v-816h-518v2318zM990 1277q155 0 237.5 74.5t82.5 214.5q0 73 -22.5 127.5t-64.5 91.5t-101 55.5t-132 18.5h-246v-582
h246z" />
    <glyph glyph-name="S" unicode="S" horiz-adv-x="1824" 
d="M302 673q144 -104 294.5 -165t296.5 -61q68 0 123.5 14t95 41.5t61 67.5t21.5 92q0 62 -29.5 105t-80.5 74t-118.5 54.5t-144 45.5l-156.5 47t-156.5 59.5t-144 82.5t-118.5 116.5t-80.5 161t-29.5 216.5q0 120 28.5 221t80.5 181.5t124 141.5t159.5 101.5t187 61
t206.5 20.5q108 0 213.5 -20t204.5 -57.5t189 -90.5t167 -118l-223 -356q-128 84 -262 129.5t-255 45.5q-68 0 -123.5 -15t-95.5 -43t-61.5 -69.5t-21.5 -93.5q0 -62 30 -105t81.5 -73.5t120 -52t146 -42.5l158.5 -45t158.5 -58t146 -82t120 -117.5t81.5 -164.5t30 -223
q0 -184 -62.5 -321.5t-170.5 -229t-254 -137t-314 -45.5q-128 0 -245.5 25t-224 70t-202 107.5t-179.5 137.5l228 366v0z" />
    <glyph glyph-name="T" unicode="T" horiz-adv-x="1824" 
d="M1771 1850h-596v-1850h-528v1850h-594v468h1718v-468z" />
    <glyph glyph-name="U" unicode="U" horiz-adv-x="2154" 
d="M1435 2318h516v-1461q0 -201 -64.5 -365t-180.5 -281t-277 -180.5t-355 -63.5q-195 0 -355 63.5t-275 180t-178 280.5t-63 365v1462h523v-1462q0 -96 27.5 -172t76.5 -129t115.5 -81t144.5 -28q74 0 137.5 26t109.5 77.5t72 128.5t26 178v1462z" />
    <glyph glyph-name="V" unicode="V" horiz-adv-x="1955" 
d="M990 838l418 1480h539l-748 -2318h-444l-745 2318h564z" />
    <glyph glyph-name="W" unicode="W" horiz-adv-x="2975" 
d="M580 2318l363 -1471l328 1164h451l343 -1175l358 1482h536l-691 -2318h-457l-336 1109l-321 -1109h-451l-684 2318h561z" />
    <glyph glyph-name="X" unicode="X" horiz-adv-x="2130" 
d="M754 1181l-738 1137h624l437 -705l444 705h591l-726 -1111l762 -1207h-615l-477 781l-478 -781h-598z" />
    <glyph glyph-name="Y" unicode="Y" horiz-adv-x="2097" 
d="M1308 959v-959h-521v953l-781 1365h601l451 -853l480 853h561z" />
    <glyph glyph-name="Z" unicode="Z" horiz-adv-x="1857" 
d="M1744 0h-1642v370l964 1495h-930v453h1596v-375l-977 -1483h989v-460z" />
    <glyph glyph-name="bracketleft" unicode="[" horiz-adv-x="1102" 
d="M710 -142h291v-403h-756v2944h757v-399h-292v-2142z" />
    <glyph glyph-name="backslash" unicode="\" horiz-adv-x="1435" 
d="M72 2399h410l876 -2666h-410z" />
    <glyph glyph-name="bracketright" unicode="]" horiz-adv-x="1103" 
d="M100 2399h758v-2944h-756v403h291v2142h-293v399z" />
    <glyph glyph-name="asciicircum" unicode="^" horiz-adv-x="1630" 
d="M1527 972h-415l-296 770l-298 -770h-415l541 1346h342z" />
    <glyph glyph-name="underscore" unicode="_" horiz-adv-x="1896" 
d="M165 -301h1566v-167h-1566v167z" />
    <glyph glyph-name="grave" unicode="`" horiz-adv-x="809" 
d="M-33 2403h491l285 -541h-382z" />
    <glyph glyph-name="a" unicode="a" 
d="M1541 -29q-98 0 -180.5 11.5t-146.5 36.5t-107 64t-62 95q-37 -58 -86 -98t-105 -65t-115.5 -36.5t-116.5 -11.5q-113 0 -212 38.5t-173 108.5t-116.5 167t-42.5 213q0 120 46 219t131 170t205 110.5t268 39.5q75 0 144.5 -9t123.5 -23v49q0 54 -19.5 93.5t-55 65t-85 38
t-110.5 12.5q-53 0 -107.5 -8t-107 -23t-102 -35.5t-91.5 -44.5l-143 324q70 51 150.5 87t165.5 59t172 34t170 11q160 0 282.5 -38.5t206 -113.5t126.5 -186t43 -257v-495q0 -53 5 -90.5t17.5 -65.5t33 -49t51.5 -40zM996 681q-36 11 -87 18.5t-105 7.5q-128 0 -193 -48.5
t-65 -136.5q0 -42 15 -73t41 -52t59.5 -31t71.5 -10q49 0 96.5 16t84.5 47.5t59.5 78t22.5 106.5v77z" />
    <glyph glyph-name="b" unicode="b" horiz-adv-x="1845" 
d="M174 0v2339l497 86v-935q81 93 183 133t226 40q123 0 220 -33.5t171 -92t125.5 -138t84.5 -171.5t48 -192.5t15 -201.5q0 -186 -46 -344.5t-133 -275t-214 -182t-289 -65.5q-72 0 -138 14t-124 43t-106.5 73t-83.5 104l-33 -201h-403zM948 408q75 0 131.5 32t95 87
t58 129t19.5 159q0 84 -19 157t-56.5 127t-94.5 85t-132 31q-76 0 -132 -31.5t-92.5 -85.5t-54 -126.5t-17.5 -153.5q0 -79 16.5 -153t52 -131t91 -91.5t134.5 -34.5z" />
    <glyph glyph-name="c" unicode="c" horiz-adv-x="1548" 
d="M1506 199q-61 -52 -132 -94.5t-149 -73t-162.5 -47.5t-171.5 -17q-100 0 -198 23t-186.5 69.5t-163.5 116t-130 163t-86 210t-31 257.5q0 201 62.5 360t171 269.5t253.5 169t310 58.5q83 0 165 -15t157.5 -42t142.5 -65t120 -85l-202 -342q-70 52 -145.5 80.5
t-159.5 28.5t-153 -29.5t-118.5 -83t-76.5 -128t-27 -164.5t27 -165.5t76 -129.5t118 -84.5t153 -30.5q85 0 160 30.5t144 84.5z" />
    <glyph glyph-name="d" unicode="d" horiz-adv-x="1845" 
d="M1235 201q-36 -60 -84 -104t-106 -73t-124 -43t-138 -14q-108 0 -200.5 30t-168.5 84.5t-134 132.5t-98 174.5t-60.5 208.5t-20.5 236q0 101 15 202t48 193t84.5 171.5t125.5 138t171 92t220 33.5q124 0 226 -40t183 -133v849l497 86v-2425h-403zM898 408q78 0 134 34.5
t91 91.5t51.5 130.5t16.5 150.5q0 83 -18 156t-54.5 127t-92.5 85.5t-132 31.5q-75 0 -131.5 -31t-94 -85t-56.5 -126.5t-19 -154.5q0 -86 19.5 -160.5t58 -130t95.5 -87.5t132 -32z" />
    <glyph glyph-name="e" unicode="e" 
d="M1520 179q-59 -50 -130 -89t-149.5 -66.5t-163 -42t-171.5 -14.5q-167 0 -314 53.5t-257.5 159.5t-174.5 262.5t-64 363.5q0 134 28 250t79 211.5t122.5 169t159 124t188.5 76.5t210 26q172 0 308 -63t230.5 -174t144 -263.5t49.5 -332.5q0 -37 -2 -80t-4 -75h-1022
q9 -74 37 -133.5t74 -101.5t109.5 -64.5t141.5 -22.5q104 0 189 37.5t164 96.5zM1142 982q-8 61 -28 113t-54 90t-80.5 59t-106.5 21q-57 0 -105 -20t-84.5 -56.5t-60 -89t-31.5 -117.5h550z" />
    <glyph glyph-name="f" unicode="f" horiz-adv-x="1208" 
d="M65 1630h253v189q0 144 36 256.5t108.5 190.5t180.5 118.5t252 40.5q99 0 188 -16.5t181 -38.5l-56 -400q-40 10 -90 18.5t-97 8.5q-64 0 -104 -20t-62.5 -56.5t-31 -89t-8.5 -117.5v-84h356v-423h-356v-1207h-497v1207h-253v423z" />
    <glyph glyph-name="g" unicode="g" horiz-adv-x="1844" 
d="M1672 104q0 -198 -59 -351t-166 -258t-256 -159t-330 -54q-201 0 -379 66.5t-316 198.5l222 308q88 -69 193 -107t213 -38q82 0 151.5 24t120.5 76.5t79.5 135.5t28.5 200v46q-80 -94 -185 -134.5t-227 -40.5q-119 0 -214.5 32t-168.5 88.5t-125.5 133t-86 166t-49.5 188
t-16 197.5q0 181 47.5 335.5t136.5 266.5t215 175.5t284 63.5q71 0 137 -14t124 -42.5t105.5 -72t82.5 -103.5l33 199h405v-1526zM896 446q76 0 131.5 31t91.5 84t53 123t17 148q0 77 -17 147.5t-53 124.5t-91 86t-131 32q-75 0 -132 -31.5t-95 -85t-57 -124t-19 -149.5
q0 -80 19 -150.5t57 -123t94.5 -82.5t131.5 -30z" />
    <glyph glyph-name="h" unicode="h" horiz-adv-x="1792" 
d="M1136 0v949q0 57 -12.5 105.5t-38.5 83t-67 54t-98 19.5q-60 0 -106 -21t-77.5 -58t-48 -88.5t-16.5 -111.5v-932h-498v2339l497 86v-917q78 83 183.5 119t222.5 36q146 0 251.5 -49.5t173.5 -138.5t100 -211.5t32 -269.5v-994h-498z" />
    <glyph glyph-name="i" unicode="i" horiz-adv-x="844" 
d="M423 1828q-60 0 -113 23.5t-92 63.5t-62 94t-23 115t23 115.5t62 94.5t92 63.5t113 23.5t113 -23.5t92 -63.5t62 -94.5t23 -115.5t-23 -115t-62 -94t-92 -63.5t-113 -23.5zM174 1630h497v-1630h-497v1630z" />
    <glyph glyph-name="j" unicode="j" horiz-adv-x="844" 
d="M422 1828q-60 0 -113 23.5t-92 63.5t-62 94t-23 115t23 115.5t62 94.5t92 63.5t113 23.5t113 -23.5t92 -63.5t62 -94.5t23 -115.5t-23 -115t-62 -94t-92 -63.5t-113 -23.5zM173 1630h497v-1705q0 -119 -30.5 -213t-83.5 -165.5t-124 -121.5t-152 -82t-168 -46.5
t-171 -14.5l-62 410q62 17 116 42t93.5 68.5t62 110.5t22.5 168v1549z" />
    <glyph glyph-name="k" unicode="k" horiz-adv-x="1739" 
d="M671 660v-660h-497v2339l497 86v-1313h105l333 518h581l-469 -733l520 -897h-581l-383 660h-106z" />
    <glyph glyph-name="l" unicode="l" horiz-adv-x="876" 
d="M163 2339l496 86v-1805q0 -53 5 -92t19 -68.5t38 -52t62 -42.5l-65 -398q-71 0 -139.5 12t-130.5 36.5t-114 61.5t-90 86t-59.5 110t-21.5 134v1932z" />
    <glyph glyph-name="m" unicode="m" horiz-adv-x="2626" 
d="M172 0v1630h403l31 -189q75 109 188.5 165.5t247.5 56.5q63 0 123.5 -12.5t116 -38t103.5 -63.5t85 -89q38 53 89 91.5t110.5 63t125 36.5t132.5 12q147 0 249.5 -49.5t167.5 -138t94.5 -211.5t29.5 -270v-994h-498v960q0 53 -10.5 99t-33 79.5t-59 53t-88.5 19.5
q-57 0 -98 -23.5t-66.5 -63t-37.5 -91.5t-12 -109v-924h-492v960q0 52 -10.5 98t-33 80t-59 53.5t-88.5 19.5q-57 0 -97 -23.5t-66 -63.5t-38 -91.5t-12 -108.5v-924h-497z" />
    <glyph glyph-name="n" unicode="n" horiz-adv-x="1774" 
d="M1119 0v960q0 55 -12.5 101t-38.5 79.5t-66 52t-94 18.5q-60 0 -105 -22.5t-74.5 -61t-44.5 -91t-15 -112.5v-924h-497v1630h403l32 -189q39 58 89.5 100t109 69t124.5 40t138 13q145 0 249 -50t171 -139t98 -211.5t31 -268.5v-994h-498z" />
    <glyph glyph-name="o" unicode="o" horiz-adv-x="1805" 
d="M902 -33q-170 0 -317.5 60t-256.5 171t-171.5 267.5t-62.5 350.5q0 129 28.5 242t80 207t125 168t163 125t194 78t218.5 27q171 0 318.5 -59.5t256 -170t171 -266.5t62.5 -349q0 -194 -62.5 -351t-171.5 -268t-256.5 -171.5t-318.5 -60.5zM902 408q67 0 124.5 30.5
t100 85t66.5 129t24 161.5t-24 161t-66.5 127t-100 83t-124.5 30q-68 0 -125.5 -30t-99.5 -83t-65.5 -126.5t-23.5 -161.5q0 -87 24 -161.5t66 -129t99.5 -85t124.5 -30.5z" />
    <glyph glyph-name="p" unicode="p" horiz-adv-x="1843" 
d="M607 1429q36 60 84 104t106 73t124.5 43t137.5 14q162 0 289 -65.5t214.5 -181.5t133.5 -274.5t46 -344.5q0 -101 -15 -202t-48 -193t-85 -171.5t-125.5 -138t-170.5 -92t-220 -33.5q-125 0 -227 40t-183 133v-772l-496 -86v2348h402zM1250 815q0 85 -19.5 159t-58 129
t-95.5 87t-132 32q-78 0 -134 -34.5t-91 -91.5t-51.5 -131t-16.5 -152q0 -81 17.5 -153.5t54 -127t92 -86t132.5 -31.5q75 0 131.5 31t94.5 85t57 127t19 157z" />
    <glyph glyph-name="q" unicode="q" horiz-adv-x="1845" 
d="M1673 -632l-496 -86v858q-81 -93 -183.5 -133t-226.5 -40q-123 0 -220 33.5t-171 92t-126 138t-85 171.5t-48 193t-15 202q0 186 46 344.5t134 274.5t214.5 181.5t288.5 65.5q144 0 262 -56.5t190 -177.5l34 201h402v-2262zM897 415q76 0 132 31.5t92 86t53.5 127
t17.5 153.5q0 78 -16 152t-51.5 131t-91 91.5t-133.5 34.5q-75 0 -132 -32t-95.5 -87t-58 -129t-19.5 -159q0 -84 19 -157t57 -127t94.5 -85t131.5 -31z" />
    <glyph glyph-name="r" unicode="r" horiz-adv-x="1223" 
d="M172 1630h403l38 -239l2 -1q29 67 66.5 118t85.5 85.5t107.5 52t133.5 17.5q53 0 99.5 -9t97.5 -28l-80 -472q-72 24 -143 24q-99 0 -160.5 -45t-95.5 -119.5t-46 -169t-12 -193.5v-651h-496v1630z" />
    <glyph glyph-name="s" unicode="s" horiz-adv-x="1458" 
d="M278 520q48 -33 97.5 -61.5t101 -49.5t104.5 -33t109 -12q85 0 134.5 30t49.5 88q0 47 -32 75t-84.5 47t-120 34t-137.5 36t-137.5 53t-120 84.5t-84.5 130.5t-32 191q0 138 48 238.5t130.5 165t192 95.5t231.5 31q93 0 178 -16.5t159 -46t138 -70t115 -87.5l-167 -287
q-49 29 -99 52.5t-98 39.5t-93 24.5t-83 8.5q-80 0 -123.5 -31.5t-43.5 -84.5q0 -46 32.5 -74.5t86 -48.5t121.5 -37t139.5 -39.5t139.5 -56t121.5 -87.5t86 -132.5t32.5 -191.5q0 -133 -47 -232.5t-131 -166t-200.5 -99.5t-256.5 -33q-113 0 -204.5 20.5t-169.5 57t-147 87
t-138 109.5l202 279v0z" />
    <glyph glyph-name="t" unicode="t" horiz-adv-x="1207" 
d="M48 1630h246v485l496 86v-571h333v-423h-333v-498q0 -90 21.5 -148t62 -94.5t97.5 -56.5t128 -33l-59 -410q-90 0 -180.5 12t-173 40t-154.5 74.5t-124.5 116.5t-83 164.5t-30.5 219.5v613h-246v423z" />
    <glyph glyph-name="u" unicode="u" horiz-adv-x="1767" 
d="M1593 0h-403l-32 187q-40 -58 -89.5 -99.5t-107.5 -68.5t-123 -39.5t-135 -12.5q-146 0 -249.5 50t-169.5 139t-96.5 212t-30.5 269v993h498v-960q0 -54 12 -100t37.5 -79.5t64.5 -52.5t94 -19q60 0 103.5 22.5t72 61.5t42.5 91.5t14 112.5v923h498v-1630z" />
    <glyph glyph-name="v" unicode="v" horiz-adv-x="1657" 
d="M838 548l315 1082h487l-571 -1630h-492l-549 1630h522z" />
    <glyph glyph-name="w" unicode="w" horiz-adv-x="2504" 
d="M558 1630l231 -1034l230 1034h465l248 -1034l251 1034h489l-499 -1630h-483l-244 1036l-232 -1036h-484l-499 1630h527z" />
    <glyph glyph-name="x" unicode="x" horiz-adv-x="1723" 
d="M568 835l-537 795h576l254 -422l272 422h536l-519 -769l587 -861h-578l-303 482l-307 -482h-547z" />
    <glyph glyph-name="y" unicode="y" horiz-adv-x="1741" 
d="M1241 1630h492l-703 -1879q-53 -142 -118.5 -233t-138.5 -143.5t-151.5 -72.5t-157.5 -20q-92 0 -171 19.5t-160 51.5l63 397q39 -13 81 -20t82 -7q42 0 79.5 9.5t69 31.5t56 57.5t41.5 86.5l21 66l-603 1656h526l332 -1061z" />
    <glyph glyph-name="z" unicode="z" horiz-adv-x="1557" 
d="M1438 0h-1332v369l659 842h-619v419h1286v-354l-675 -852h681v-424z" />
    <glyph glyph-name="braceleft" unicode="{" horiz-adv-x="1102" 
d="M80 1108q47 6 81 22.5t58 46.5t39 75.5t23.5 110.5t11.5 151t4 197q0 134 17.5 234.5t52.5 173.5t89 121.5t127.5 80.5t168.5 49.5t212 28.5l45 -368q-92 -12 -142.5 -44t-75 -80t-29.5 -110t-5 -133v-165q0 -87 -2.5 -176t-19.5 -167.5t-55 -139.5t-109 -92
q66 -34 103.5 -97.5t56 -142t22.5 -164.5t4 -165v-166q0 -70 5 -132t29.5 -110t75 -80.5t142.5 -43.5l-45 -368q-117 10 -211.5 28t-168.5 49.5t-128 80.5t-89 122t-52.5 173.5t-17.5 235.5q0 168 -7.5 279t-30.5 179.5t-65.5 101t-113.5 42.5v362z" />
    <glyph glyph-name="bar" unicode="|" horiz-adv-x="882" 
d="M244 2392h394v-3077h-394v3077z" />
    <glyph glyph-name="braceright" unicode="}" horiz-adv-x="1102" 
d="M1022 746q-71 -10 -113.5 -42.5t-65.5 -101t-30.5 -179.5t-7.5 -279q0 -135 -17.5 -235.5t-52.5 -173.5t-89 -122t-128 -80.5t-168.5 -49.5t-211.5 -28l-45 368q91 11 142 43.5t75.5 80.5t29.5 110t5 132v166q0 79 4 165t22.5 164.5t56 142t103.5 97.5q-71 31 -109 92
t-55 139.5t-19.5 167.5t-2.5 176v165q0 71 -5 133t-29.5 110t-75.5 80t-142 44l45 368q117 -11 212 -28.5t168.5 -49.5t127.5 -80.5t89 -121.5t52 -173.5t18 -234.5q1 -167 8.5 -278.5t30.5 -180.5t65 -102t113 -42v-362z" />
    <glyph glyph-name="asciitilde" unicode="~" horiz-adv-x="1902" 
d="M153 716q15 174 56.5 303.5t104.5 215.5t144 128.5t176 42.5q86 0 150.5 -20.5t115 -52t90 -67.5l77 -67.5t75.5 -52t86 -20.5q62 0 103 64t64 203h378q-15 -174 -57 -303.5t-105 -215.5t-144.5 -128.5t-175.5 -42.5q-87 0 -151.5 20.5t-114.5 51.5t-89.5 67.5
t-76.5 67.5t-75.5 51.5t-86.5 20.5q-62 0 -103 -63.5t-64 -202.5h-377z" />
    <glyph glyph-name="uni00A0" unicode="&#xa0;" horiz-adv-x="725" 
 />
    <glyph glyph-name="exclamdown" unicode="&#xa1;" horiz-adv-x="917" 
d="M459 1167q-62 0 -116.5 24t-95 65.5t-64 97.5t-23.5 119t23.5 119t64 97t95 65t116.5 24t116.5 -24t95 -65t64 -97t23.5 -119t-23.5 -119t-64 -97.5t-95 -65.5t-116.5 -24zM243 980h432l49 -1553h-530z" />
    <glyph glyph-name="cent" unicode="&#xa2;" horiz-adv-x="1628" 
d="M1059 -8h-317v302q-125 25 -237.5 89t-198 167t-135.5 244.5t-50 321.5q0 174 47 316.5t130.5 249.5t197 176.5t246.5 96.5v303h317v-297q64 -10 125.5 -28.5t117.5 -43.5t105 -56t90 -67l-201 -342q-69 52 -145.5 80.5t-158.5 28.5q-83 0 -151.5 -29.5t-117 -83
t-75.5 -128t-27 -164.5t26.5 -165.5t75 -129.5t117 -84.5t151.5 -30.5q84 0 159 30.5t144 84.5l231 -324q-95 -81 -213.5 -139t-252.5 -81v-297z" />
    <glyph glyph-name="sterling" unicode="&#xa3;" horiz-adv-x="1795" 
d="M149 902v386h198q-7 57 -11 112.5t-4 109.5q0 179 50.5 322t143.5 243t224.5 153.5t293.5 53.5q98 0 193 -22.5t179.5 -72t154.5 -128.5t118 -193l-321 -244q-21 39 -49 74t-63.5 61.5t-80 42t-99.5 15.5q-48 0 -92 -15t-78 -51.5t-54.5 -97t-20.5 -151.5q0 -51 6 -103.5
t14 -108.5h331v-386h-283q1 -15 1 -29.5v-29.5q0 -70 -7.5 -126t-20.5 -104t-31 -89.5t-40 -83.5h832v-440h-1484v394q48 23 92.5 64t79 98t55 130t20.5 160q0 13 -0.5 27t-1.5 29h-245z" />
    <glyph glyph-name="currency" unicode="&#xa4;" horiz-adv-x="2084" 
d="M1429 431q-88 -52 -186.5 -80t-203.5 -28q-109 0 -206.5 28t-182.5 79l-238 -248l-275 284l240 241q-52 90 -80.5 192t-28.5 212q0 113 29 215.5t82 191.5l-242 245l275 280l242 -249q88 52 186 80t204 28t203.5 -27.5t182.5 -77.5l238 245l279 -279l-240 -240
q55 -92 85 -196.5t30 -217.5t-30.5 -215.5t-84.5 -190.5l240 -237l-279 -283zM1041 713q73 0 140.5 30.5t119 83.5t82 126t30.5 157q0 82 -28.5 155t-78.5 128t-117.5 87t-145.5 32q-75 0 -141.5 -31t-117 -85t-80 -127t-29.5 -158q0 -80 28 -152.5t77 -127t116 -86.5
t145 -32z" />
    <glyph glyph-name="yen" unicode="&#xa5;" horiz-adv-x="1952" 
d="M1679 744v-310h-456v-434h-505v434h-446v310h446v181l-21 44h-425v309h278l-461 971h542l348 -825l370 825h516l-473 -971h287v-309h-438l-18 -38v-187h456z" />
    <glyph glyph-name="brokenbar" unicode="&#xa6;" horiz-adv-x="803" 
d="M204 556h394v-1062h-394v1062zM204 2213h394v-1061h-394v1061z" />
    <glyph glyph-name="section" unicode="&#xa7;" horiz-adv-x="1728" 
d="M1075 72q0 62 -41.5 110t-109.5 88.5t-154.5 77.5l-177.5 77.5t-177.5 88.5t-154.5 110.5t-109.5 143t-41.5 186.5q0 71 19.5 133.5t54 116t81.5 98t101 79.5q-40 29 -72 64.5t-54.5 79.5t-35 99t-12.5 123q0 105 28.5 190.5t79 152.5t119 116t149 81.5t169.5 48
t180 15.5q96 0 180 -16t156.5 -44.5t134 -66.5t113.5 -81l-170 -295q-32 22 -76.5 44.5t-97 41t-110.5 30t-116 11.5q-112 0 -175.5 -44.5t-63.5 -129.5q0 -67 40 -115t105 -85.5t148.5 -69l170 -67t170 -79t148.5 -105t105 -144.5t40 -198q0 -57 -12 -112t-39.5 -107
t-72 -101t-109.5 -94q87 -54 137.5 -149.5t50.5 -230.5q0 -102 -29.5 -187.5t-81.5 -154.5t-123.5 -121t-156.5 -87.5t-179.5 -53t-191.5 -17.5q-119 0 -214.5 23.5t-174 61t-142 85t-118.5 94.5l206 290q104 -81 216.5 -126t235.5 -45q128 0 191.5 45t63.5 121zM1069 679
q54 35 86.5 80.5t32.5 100.5q0 45 -23 83.5t-62 71t-91 59.5t-110 48l-264 98q-26 -17 -48 -35.5t-38.5 -39.5t-26 -45t-9.5 -53q0 -44 22.5 -82.5t61.5 -71.5t91 -61t110 -50z" />
    <glyph glyph-name="dieresis" unicode="&#xa8;" horiz-adv-x="1416" 
d="M373 1867q-50 0 -93.5 18.5t-75.5 51t-50.5 77t-18.5 95.5t18.5 95.5t50.5 77t75.5 51t93.5 18.5t93 -18.5t74.5 -51t49 -77t17.5 -95.5t-17.5 -95.5t-49 -77t-74.5 -51t-93 -18.5zM1047 1867q-50 0 -93.5 18.5t-75.5 51t-50.5 77t-18.5 95.5t18.5 95.5t50.5 77t75.5 51
t93.5 18.5t93 -18.5t74.5 -51t49 -77t17.5 -95.5t-17.5 -95.5t-49 -77t-74.5 -51t-93 -18.5z" />
    <glyph glyph-name="copyright" unicode="&#xa9;" horiz-adv-x="2610" 
d="M1881 979q-11 -119 -60 -214t-125.5 -161.5t-174.5 -102.5t-207 -36q-151 0 -264 54.5t-188 148t-112 220t-37 270.5q0 89 17 175.5t51 163.5t84.5 142.5t117.5 113t150 74t182 26.5q92 0 186 -28.5t173 -87.5t134.5 -148.5t72.5 -212.5h-288q-9 55 -33.5 97.5t-60.5 71
t-82 43.5t-98 15q-68 0 -123 -29.5t-95 -86.5t-61.5 -139t-21.5 -187q0 -102 20.5 -183t59 -137t94 -85.5t124.5 -29.5q51 0 97 17.5t82.5 50t62 79.5t35.5 106h288zM113 1163q0 165 42.5 317t120 284t186.5 240.5t241.5 185.5t284.5 119t317 42t317.5 -42t285 -119
t241 -185.5t186 -240.5t120 -284t42.5 -317t-42.5 -318t-120 -286t-186 -242t-241 -187t-285 -120.5t-317.5 -42.5t-317 42.5t-284.5 120.5t-241.5 187t-186.5 242t-120 286t-42.5 318zM2211 1162q0 129 -31.5 247t-90 220t-140.5 185t-182.5 141.5t-217.5 90.5t-244 32
q-128 0 -245 -32t-217.5 -90.5t-183 -141.5t-140.5 -185t-90 -220t-32 -247q0 -131 32 -250t90 -221t140.5 -185.5t183 -142.5t217.5 -91t245 -32q127 0 244 32t217.5 91t182.5 142.5t140.5 185.5t90 221t31.5 250z" />
    <glyph glyph-name="ordfeminine" unicode="&#xaa;" horiz-adv-x="1280" 
d="M1115 1137q-136 1 -226 32t-118 102q-25 -38 -58.5 -64t-71.5 -42.5t-78.5 -23.5t-78.5 -7q-78 0 -146 26t-119 73.5t-80 113.5t-29 146q0 81 31.5 148.5t90 116t141 75t184.5 26.5q51 0 97 -6t82 -15v32q0 74 -49.5 107.5t-130.5 33.5q-36 0 -73.5 -5.5t-73.5 -15.5
t-70 -24.5t-64 -31.5l-97 222q48 35 103 60t113.5 40.5t118 23t116.5 7.5q109 0 193 -25.5t141.5 -76.5t87.5 -126.5t30 -175.5v-335q0 -36 3.5 -62t11.5 -45t22.5 -33.5t35.5 -27.5zM736 1619q-24 7 -57.5 12t-68.5 5q-87 0 -129 -32.5t-42 -91.5q0 -29 10 -49.5t27 -34.5
t39.5 -20.5t47.5 -6.5q32 0 63 10.5t55.5 31.5t39.5 52.5t15 73.5v50z" />
    <glyph glyph-name="guillemotleft" unicode="&#xab;" horiz-adv-x="1856" 
d="M94 848l459 693h443l-417 -693l417 -693h-443zM849 848l458 693h444l-417 -693l417 -693h-444z" />
    <glyph glyph-name="logicalnot" unicode="&#xac;" horiz-adv-x="1954" 
d="M1306 933h-1164v407h1582v-1059h-418v652z" />
    <glyph glyph-name="uni00AD" unicode="&#xad;" horiz-adv-x="1171" 
d="M165 1075h841v-388h-841v388z" />
    <glyph glyph-name="registered" unicode="&#xae;" horiz-adv-x="1701" 
d="M847 1537h-76v-298h-192v783h288q83 0 142.5 -16t97 -46.5t55 -74.5t17.5 -101q0 -80 -33.5 -134.5t-102.5 -80.5l161 -330h-214zM851 867q-103 0 -198 26.5t-177 75t-150 116.5t-116 150.5t-74.5 177.5t-26.5 198t26.5 197.5t74.5 177t116 150t150 115t177 74t198 26.5
q102 0 197 -26.5t177.5 -74t150 -115t115.5 -150t74.5 -177t26.5 -197.5t-26.5 -198t-74.5 -177.5t-115.5 -150.5t-150 -116.5t-177.5 -75t-197 -26.5zM851 1061q114 0 212.5 42t171.5 116t114.5 174t41.5 217q0 116 -41.5 216t-114.5 173.5t-171.5 115.5t-212.5 42
t-213 -42t-171.5 -115.5t-114.5 -173.5t-42 -216t42 -216.5t114.5 -174.5t171.5 -116t213 -42zM848 1703q75 0 108.5 19t33.5 60q0 42 -35 59t-110 17h-74v-155h77z" />
    <glyph glyph-name="macron" unicode="&#xaf;" horiz-adv-x="1334" 
d="M173 2256h988v-309h-988v309z" />
    <glyph glyph-name="degree" unicode="&#xb0;" horiz-adv-x="1270" 
d="M634 1274q-111 0 -209 42.5t-171 115.5t-115.5 171.5t-42.5 209.5t42.5 209t115.5 171t171 115.5t209 42.5q112 0 210 -42.5t171.5 -115.5t116 -171t42.5 -209t-42.5 -209.5t-116 -171.5t-171.5 -115.5t-210 -42.5zM634 1549q55 0 103.5 20.5t84.5 56t56.5 83.5t20.5 104
q0 55 -20.5 103t-56.5 83.5t-84.5 56t-103.5 20.5t-103 -20.5t-83.5 -56t-56 -83.5t-20.5 -103q0 -56 20.5 -104t56 -83.5t83.5 -56t103 -20.5z" />
    <glyph glyph-name="plusminus" unicode="&#xb1;" horiz-adv-x="1905" 
d="M745 1052h-583v405h583v499h415v-499h583v-405h-583v-500h-415v500zM162 397h1581v-406h-1581v406z" />
    <glyph glyph-name="uni00B2" unicode="&#xb2;" horiz-adv-x="1070" 
d="M982 1354h-899v221q40 95 96.5 167t117.5 130t121 105.5t107.5 93.5t77 94.5t29.5 108.5q0 69 -39 108t-101 39q-36 0 -71 -13.5t-65.5 -35.5t-57 -49t-45.5 -54l-193 188q33 55 79.5 102.5t105 82.5t128 54.5t147.5 19.5q94 0 175 -29t141 -83.5t94.5 -133.5t34.5 -178
q0 -92 -28 -164.5t-71.5 -131.5t-96.5 -106.5l-103 -88.5l-91 -77t-61 -73h468v-297z" />
    <glyph glyph-name="uni00B3" unicode="&#xb3;" horiz-adv-x="1061" 
d="M220 1766q57 -63 124.5 -100.5t136.5 -37.5q36 0 67 11t54.5 31t36.5 49t13 65q0 58 -33 92t-84 48q-43 11 -100.5 13.5t-116.5 3.5v247q27 0 56 0.5t57.5 3t54.5 7t47 13.5q29 12 50 35t21 65q0 51 -34 83t-99 32q-33 0 -63.5 -8.5t-59.5 -23.5t-56 -34.5t-53 -41.5
l-156 213q33 39 77.5 73t99 59.5t117 40t131.5 14.5q91 0 171 -26.5t138.5 -76.5t92.5 -121.5t34 -160.5q0 -96 -38.5 -158t-98.5 -101q34 -18 66 -46t57 -66.5t40 -88.5t15 -113q0 -105 -42.5 -184t-111 -132.5t-154.5 -80t-173 -26.5q-65 0 -129 15t-124 43.5t-114 70.5
t-98 97z" />
    <glyph glyph-name="acute" unicode="&#xb4;" horiz-adv-x="808" 
d="M351 2403h490l-393 -541h-382z" />
    <glyph glyph-name="mu" unicode="&#xb5;" horiz-adv-x="1899" 
d="M1747 -33q-101 0 -178.5 18.5t-135 49t-97 69.5t-63.5 81q-76 -113 -169 -165.5t-211 -52.5q-59 0 -113.5 19t-97.5 54v-725h-452v2315h453v-971q0 -63 13.5 -117t40.5 -93t66.5 -61.5t91.5 -22.5q79 0 130 39.5t81 111.5t41.5 173.5t11.5 226.5v714h456v-981
q0 -68 2 -125.5t14 -103.5t39 -78.5t77 -50.5v-324z" />
    <glyph glyph-name="paragraph" unicode="&#xb6;" horiz-adv-x="2104" 
d="M1164 -525h-348v1425q-162 9 -296.5 66t-231 151.5t-149.5 220.5t-53 273q0 174 59 306t169 221.5t266 134.5t351 45h880v-2843h-348v2525h-299v-2525z" />
    <glyph glyph-name="periodcentered" unicode="&#xb7;" horiz-adv-x="872" 
d="M436 646q-62 0 -117 24t-95.5 65t-64 97t-23.5 119t23.5 119t64 97t95.5 65t117 24q61 0 115.5 -24t95.5 -65t64.5 -97t23.5 -119t-23.5 -119t-64.5 -97t-95.5 -65t-115.5 -24z" />
    <glyph glyph-name="cedilla" unicode="&#xb8;" horiz-adv-x="698" 
d="M523 0l-113 -186q45 -8 87 -27.5t74.5 -50t52 -72.5t19.5 -95q0 -78 -32 -133t-84.5 -90t-120.5 -51t-140 -16q-74 0 -148 21t-134 58l66 182q60 -32 112 -44.5t89 -12.5q19 0 37 4.5t31.5 14t21.5 25t8 37.5q0 37 -28.5 59.5t-70 35.5t-88 17.5t-81.5 4.5l179 319h263z
" />
    <glyph glyph-name="uni00B9" unicode="&#xb9;" horiz-adv-x="1014" 
d="M962 1354h-857v297h271v605h-267v259q57 0 114 11t105.5 33.5t82.5 58t44 85.5h257v-1052h250v-297z" />
    <glyph glyph-name="ordmasculine" unicode="&#xba;" horiz-adv-x="1316" 
d="M658 1134q-117 0 -218.5 41t-176.5 116.5t-118 182t-43 237.5q0 132 43 238.5t118 181.5t176.5 115.5t218.5 40.5t218.5 -40.5t176.5 -115.5t118 -181t43 -237q0 -132 -43 -239t-118 -182.5t-176.5 -116.5t-218.5 -41zM657 1436q45 0 84 20.5t67.5 57.5t45 87.5
t16.5 109.5t-16 108.5t-44.5 85.5t-67.5 56t-84 20q-46 0 -84.5 -20t-67 -56t-44.5 -86t-16 -109t16 -109t44 -87t67 -57.5t84 -20.5z" />
    <glyph glyph-name="guillemotright" unicode="&#xbb;" horiz-adv-x="1856" 
d="M522 848l-417 693h443l459 -693l-459 -693h-444zM1278 848l-418 693h443l459 -693l-459 -693h-443z" />
    <glyph glyph-name="onequarter" unicode="&#xbc;" horiz-adv-x="2640" 
d="M987 969h-857v298h271v605h-267v259q56 0 113.5 10.5t105.5 33.5t82 58.5t45 85.5h257v-1052h250v-298zM2046 0v257h-540v206l597 887h268v-825h174v-268h-178v-257h-321zM1895 2384h340l-1287 -2450h-339zM2053 525v349l-242 -349h242z" />
    <glyph glyph-name="onehalf" unicode="&#xbd;" horiz-adv-x="2789" 
d="M2688 0h-899v222q40 95 96.5 167t117.5 129.5t120.5 105t107 93.5t77 94.5t29.5 108.5q0 69 -38.5 108.5t-101.5 39.5q-36 0 -71 -14t-65.5 -35.5t-57 -49t-45.5 -54.5l-191 188q33 56 79.5 103.5t105 82t127.5 54t147 19.5q93 0 174 -29t141 -83.5t94.5 -133
t34.5 -178.5q0 -91 -28 -164t-71.5 -132t-96.5 -106.5l-103 -88.5l-91 -77t-60 -73h468v-297zM978 969h-857v298h271v605h-267v259q57 0 114 10.5t105.5 33.5t82.5 58.5t44 85.5h257v-1052h250v-298zM1887 2384h339l-1286 -2450h-340z" />
    <glyph glyph-name="threequarters" unicode="&#xbe;" horiz-adv-x="2588" 
d="M272 1380q57 -63 124.5 -100t135.5 -37q36 0 67.5 11t54.5 31t36.5 49t13.5 65q0 59 -33 92.5t-84 47.5q-44 12 -101 14l-116 4v246q27 0 56 1t57.5 3.5t54.5 7.5t47 13q29 12 50 34t21 64q0 50 -34 81.5t-100 31.5q-65 0 -122 -30t-109 -75l-157 213q33 39 78 73
t99.5 59.5t117 40.5t131.5 15q91 0 170.5 -27t138.5 -77t92.5 -121.5t33.5 -160.5q0 -96 -38 -157.5t-98 -100.5q34 -18 66 -46t57 -67t40 -89t15 -113q0 -70 -19.5 -129t-54 -106t-80.5 -82.5t-99.5 -59t-111.5 -35.5t-116 -12q-65 0 -129.5 15t-124.5 44t-113.5 71.5
t-97.5 97.5zM1990 257h-540v206l597 887h267v-825h175v-268h-179v-257h-320v257zM2179 2384l-1287 -2450h-339l1286 2450h340zM1997 874l-242 -349h242v349z" />
    <glyph glyph-name="questiondown" unicode="&#xbf;" horiz-adv-x="1646" 
d="M1100 980q0 -133 -21 -228.5t-55 -165t-78 -117t-89.5 -83.5t-89.5 -65t-78 -61.5t-55 -73t-21 -99.5q0 -106 68 -166t195 -60q64 0 122.5 17t110.5 47.5t96.5 73t81.5 93.5l288 -272q-49 -95 -123.5 -173t-169.5 -134.5t-209 -87.5t-242 -31q-147 0 -279.5 43
t-232.5 129.5t-159 216t-59 302.5q0 111 24 192.5t63 142t89 105t102.5 82.5l102 73.5t89 77.5t63 95t23.5 127h443zM579 1473q0 63 23.5 119t64 97t95 65t116.5 24t116.5 -24t95 -65t64 -97t23.5 -119t-23.5 -119t-64 -97.5t-95 -65.5t-116.5 -24t-116.5 24t-95 65.5
t-64 97.5t-23.5 119z" />
    <glyph glyph-name="Agrave" unicode="&#xc0;" horiz-adv-x="2117" 
d="M1400 505h-709l-142 -505h-539l747 2318h598l757 -2318h-568zM415 2967h524l306 -438h-409zM1276 949l-234 813l-230 -813h464z" />
    <glyph glyph-name="Aacute" unicode="&#xc1;" horiz-adv-x="2117" 
d="M1400 505h-709l-142 -505h-539l747 2318h598l757 -2318h-568zM1191 2960h524l-420 -438h-409zM1276 949l-234 813l-230 -813h464z" />
    <glyph glyph-name="Acircumflex" unicode="&#xc2;" horiz-adv-x="2117" 
d="M1400 505h-709l-142 -505h-539l747 2318h598l757 -2318h-568zM1630 2521h-377l-179 206l-184 -206h-373l416 440h275zM1276 949l-234 813l-230 -813h464z" />
    <glyph glyph-name="Atilde" unicode="&#xc3;" horiz-adv-x="2117" 
d="M596 2519q8 111 36 193.5t69.5 137t92 81.5t104.5 27q46 0 82 -13.5t64.5 -33.5t51 -43l41.5 -43t36 -33.5t35 -13.5q31 0 54.5 40.5t35.5 131.5h249q-8 -111 -36 -194t-69.5 -137.5t-92 -81.5t-104.5 -27q-46 0 -82 13.5t-64 33.5t-50.5 43l-41 43t-35.5 33.5t-35 13.5
q-32 0 -55.5 -40t-36.5 -131h-249zM691 505l-142 -505h-539l747 2318h598l757 -2318h-568l-144 505h-709zM1042 1762l-230 -813h464z" />
    <glyph glyph-name="Adieresis" unicode="&#xc4;" horiz-adv-x="2117" 
d="M740 2485q-50 0 -93.5 18.5t-75.5 51t-50.5 77t-18.5 95.5t18.5 95.5t50.5 77t75.5 51t93.5 18.5t93 -18.5t74 -51t48.5 -77t17.5 -95.5t-17.5 -95.5t-48.5 -77t-74 -51t-93 -18.5zM1413 2485q-50 0 -93 18.5t-75 51t-50.5 77t-18.5 95.5t18.5 95.5t50.5 77t75 51
t93 18.5t93 -18.5t74.5 -51t49.5 -77t18 -95.5t-18 -95.5t-49.5 -77t-74.5 -51t-93 -18.5zM1400 505h-709l-142 -505h-539l747 2318h598l757 -2318h-568zM1276 949l-234 813l-230 -813h464z" />
    <glyph glyph-name="Aring" unicode="&#xc5;" horiz-adv-x="2117" 
d="M1072 2492q-73 0 -137 27.5t-112 75.5t-75.5 112t-27.5 137t27.5 137t75.5 111.5t112 75t137 27.5t137 -27.5t111.5 -75t75 -111.5t27.5 -137t-27.5 -137t-75 -112t-111.5 -75.5t-137 -27.5zM1072 2682q33 0 62.5 12.5t51.5 34.5t35 51.5t13 63.5q0 33 -13 62.5t-35 51.5
t-51.5 35t-62.5 13q-34 0 -63.5 -13t-51.5 -35t-34.5 -51.5t-12.5 -62.5q0 -34 12.5 -63.5t34.5 -51.5t51.5 -34.5t63.5 -12.5zM1400 505h-709l-142 -505h-539l747 2318h598l757 -2318h-568zM1276 949l-234 813l-230 -813h464z" />
    <glyph glyph-name="AE" unicode="&#xc6;" horiz-adv-x="2850" 
d="M1793 1401h788v-465h-788v-470h936v-466h-1455v465h-524l-173 -465h-574l969 2318h1730v-466h-909v-451zM1274 909v943h-20l-350 -943h370z" />
    <glyph glyph-name="Ccedilla" unicode="&#xc7;" horiz-adv-x="2046" 
d="M2002 270q-60 -58 -134.5 -106.5t-158.5 -85.5t-175 -62t-183 -37l-102 -169q45 -8 87 -27.5t74.5 -50t52 -72t19.5 -95.5q0 -78 -32 -133t-84.5 -90t-120 -51t-139.5 -16q-75 0 -149 21t-134 58l66 183q60 -32 112 -45t89 -13q19 0 37 4.5t31.5 14t21.5 25t8 37.5
q0 37 -28.5 59.5t-70 35.5t-88 17.5t-81.5 4.5l165 295q-143 13 -272 61t-238 126t-196.5 183t-148.5 231.5t-94 272t-33 304.5q0 170 38 325.5t107.5 289t168.5 242t220.5 185t263.5 118t298 41.5q109 0 219 -20.5t213.5 -60t197 -96.5t170.5 -130l-224 -355
q-120 88 -249.5 139t-266.5 51q-145 0 -260.5 -57t-196 -154.5t-123.5 -228t-43 -277.5q0 -144 41.5 -273.5t121 -227.5t195 -155.5t263.5 -57.5q73 0 142.5 14.5t135 39.5t125.5 59.5t115 75.5z" />
    <glyph glyph-name="Egrave" unicode="&#xc8;" horiz-adv-x="1798" 
d="M226 2318h1431v-466h-911v-452h790v-463h-790v-471h931v-466h-1451v2318zM357 2967h524l306 -438h-409z" />
    <glyph glyph-name="Eacute" unicode="&#xc9;" horiz-adv-x="1798" 
d="M226 2318h1431v-466h-911v-452h790v-463h-790v-471h931v-466h-1451v2318zM1006 2960h525l-421 -438h-408z" />
    <glyph glyph-name="Ecircumflex" unicode="&#xca;" horiz-adv-x="1798" 
d="M226 2318h1431v-466h-911v-452h790v-463h-790v-471h931v-466h-1451v2318zM1507 2521h-378l-178 206l-184 -206h-373l416 440h275z" />
    <glyph glyph-name="Edieresis" unicode="&#xcb;" horiz-adv-x="1798" 
d="M613 2488q-50 0 -93 18.5t-75.5 51t-51 77t-18.5 95.5t18.5 95.5t51 77t75.5 51t93 18.5t93 -18.5t74.5 -51t49.5 -77t18 -95.5t-18 -95.5t-49.5 -77t-74.5 -51t-93 -18.5zM1288 2488q-50 0 -93.5 18.5t-75.5 51t-50.5 77t-18.5 95.5t18.5 95.5t50.5 77t75.5 51
t93.5 18.5t93 -18.5t74.5 -51t49 -77t17.5 -95.5t-17.5 -95.5t-49 -77t-74.5 -51t-93 -18.5zM226 2318h1431v-466h-911v-452h790v-463h-790v-471h931v-466h-1451v2318z" />
    <glyph glyph-name="Igrave" unicode="&#xcc;" horiz-adv-x="979" 
d="M226 2318h527v-2318h-527v2318zM-103 2967h524l306 -438h-409z" />
    <glyph glyph-name="Iacute" unicode="&#xcd;" horiz-adv-x="979" 
d="M226 2318h527v-2318h-527v2318zM575 2960h524l-421 -438h-409z" />
    <glyph glyph-name="Icircumflex" unicode="&#xce;" horiz-adv-x="979" 
d="M1046 2521h-377l-179 206l-183 -206h-373l415 440h276zM226 2318h527v-2318h-527v2318z" />
    <glyph glyph-name="Idieresis" unicode="&#xcf;" horiz-adv-x="979" 
d="M154 2488q-50 0 -93.5 18.5t-75.5 51t-50.5 77t-18.5 95.5t18.5 95.5t50.5 77t75.5 51t93.5 18.5t93 -18.5t74.5 -51t49.5 -77t18 -95.5t-18 -95.5t-49.5 -77t-74.5 -51t-93 -18.5zM828 2488q-50 0 -93 18.5t-75 51t-50.5 77t-18.5 95.5t18.5 95.5t50.5 77t75 51t93 18.5
t93 -18.5t74.5 -51t49 -77t17.5 -95.5t-17.5 -95.5t-49 -77t-74.5 -51t-93 -18.5zM226 2318h527v-2318h-527v2318z" />
    <glyph glyph-name="Eth" unicode="&#xd0;" horiz-adv-x="2181" 
d="M244 2318h770q173 0 318.5 -40.5t263 -115.5t206 -180t148.5 -233.5t90 -278t30 -311.5q0 -165 -31 -315t-92 -279t-150.5 -233.5t-207.5 -178t-262.5 -113.5t-315.5 -40h-767v970h-190v367h190v981zM765 1337h364v-367h-364v-503h200q154 0 263.5 38.5t179.5 121.5
t102.5 213t32.5 313q0 192 -35 325t-105.5 216t-178.5 120t-253 37h-206v-514z" />
    <glyph glyph-name="Ntilde" unicode="&#xd1;" horiz-adv-x="2276" 
d="M677 2519q8 111 36 193.5t69.5 137t92 81.5t104.5 27q46 0 82 -13.5t64.5 -33.5t51 -43l41 -43t35.5 -33.5t35 -13.5q32 0 55.5 40.5t36.5 131.5h248q-8 -111 -36 -194t-69 -137.5t-92 -81.5t-105 -27q-46 0 -82 13.5t-64 33.5t-50.5 43l-41.5 43t-36 33.5t-35 13.5
q-32 0 -55.5 -40t-35.5 -131h-249zM226 0v2318h567l765 -1443l-10 1443h502v-2318h-576l-752 1422l8 -1422h-504z" />
    <glyph glyph-name="Ograve" unicode="&#xd2;" horiz-adv-x="2457" 
d="M1228 -33q-160 0 -306 40.5t-271 115t-226 181.5t-172.5 239.5t-110.5 288.5t-39 329q0 175 39.5 331t111.5 288t174 238t227 180t270 113.5t304 39.5t304 -39.5t270 -113.5t226.5 -180t174 -238t111.5 -288t39 -330q0 -173 -39 -329t-110.5 -289t-173 -239.5
t-226.5 -181.5t-271 -115.5t-306 -40.5zM1228 439q129 0 237.5 52.5t187 148t122.5 228t44 292.5t-44 292.5t-123 227.5t-187 147t-237 52q-128 0 -236.5 -52t-187.5 -146.5t-123 -227t-44 -293.5q0 -160 44 -292.5t122.5 -228t187 -148t237.5 -52.5zM649 2980h525l305 -438
h-408z" />
    <glyph glyph-name="Oacute" unicode="&#xd3;" horiz-adv-x="2457" 
d="M1228 -33q-160 0 -306 40.5t-271 115t-226 181.5t-172.5 239.5t-110.5 288.5t-39 329q0 175 39.5 331t111.5 288t174 238t227 180t270 113.5t304 39.5t304 -39.5t270 -113.5t226.5 -180t174 -238t111.5 -288t39 -330q0 -173 -39 -329t-110.5 -289t-173 -239.5
t-226.5 -181.5t-271 -115.5t-306 -40.5zM1228 439q129 0 237.5 52.5t187 148t122.5 228t44 292.5t-44 292.5t-123 227.5t-187 147t-237 52q-128 0 -236.5 -52t-187.5 -146.5t-123 -227t-44 -293.5q0 -160 44 -292.5t122.5 -228t187 -148t237.5 -52.5zM1307 2974h524
l-420 -438h-409z" />
    <glyph glyph-name="Ocircumflex" unicode="&#xd4;" horiz-adv-x="2457" 
d="M1228 -33q-160 0 -306 40.5t-271 115t-226 181.5t-172.5 239.5t-110.5 288.5t-39 329q0 175 39.5 331t111.5 288t174 238t227 180t270 113.5t304 39.5t304 -39.5t270 -113.5t226.5 -180t174 -238t111.5 -288t39 -330q0 -173 -39 -329t-110.5 -289t-173 -239.5
t-226.5 -181.5t-271 -115.5t-306 -40.5zM1228 439q129 0 237.5 52.5t187 148t122.5 228t44 292.5t-44 292.5t-123 227.5t-187 147t-237 52q-128 0 -236.5 -52t-187.5 -146.5t-123 -227t-44 -293.5q0 -160 44 -292.5t122.5 -228t187 -148t237.5 -52.5zM1784 2535h-376
l-179 206l-184 -206h-373l416 440h275z" />
    <glyph glyph-name="Otilde" unicode="&#xd5;" horiz-adv-x="2457" 
d="M752 2529q9 111 37 193.5t69 137t92 81.5t105 27q46 0 82 -13.5t64.5 -33.5t50.5 -43l41 -43t36 -33.5t35 -13.5q32 0 55.5 40.5t35.5 131.5h249q-9 -111 -37 -194t-69 -137.5t-91.5 -81.5t-104.5 -27q-46 0 -82 13.5t-64.5 33.5t-50.5 43l-41 43t-36 33.5t-35 13.5
q-32 0 -55.5 -40t-35.5 -131h-250zM103 1161q0 175 39.5 331t111.5 288t174 238t227 180t270 113.5t304 39.5t304 -39.5t270 -113.5t226.5 -180t174 -238t111.5 -288t39 -330q0 -173 -39 -329t-110.5 -289t-173 -239.5t-226.5 -181.5t-271 -115.5t-306 -40.5t-306 40.5
t-271 115t-226 181.5t-172.5 239.5t-110.5 288.5t-39 329zM1819 1160q0 160 -44 292.5t-123 227.5t-187 147t-237 52q-128 0 -236.5 -52t-187.5 -146.5t-123 -227t-44 -293.5q0 -160 44 -292.5t122.5 -228t187 -148t237.5 -52.5t237.5 52.5t187 148t122.5 228t44 292.5z" />
    <glyph glyph-name="Odieresis" unicode="&#xd6;" horiz-adv-x="2457" 
d="M895 2499q-50 0 -94 18.5t-76 51t-50.5 77t-18.5 95.5t18.5 95.5t50.5 77t76 51t94 18.5t92.5 -18.5t74 -51t49 -77t17.5 -95.5t-17.5 -95.5t-49 -77t-74 -51t-92.5 -18.5zM1228 -33q-160 0 -306 40.5t-271 115t-226 181.5t-172.5 239.5t-110.5 288.5t-39 329
q0 175 39.5 331t111.5 288t174 238t227 180t270 113.5t304 39.5t304 -39.5t270 -113.5t226.5 -180t174 -238t111.5 -288t39 -330q0 -173 -39 -329t-110.5 -289t-173 -239.5t-226.5 -181.5t-271 -115.5t-306 -40.5zM1228 439q129 0 237.5 52.5t187 148t122.5 228t44 292.5
t-44 292.5t-123 227.5t-187 147t-237 52q-128 0 -236.5 -52t-187.5 -146.5t-123 -227t-44 -293.5q0 -160 44 -292.5t122.5 -228t187 -148t237.5 -52.5zM1568 2499q-50 0 -93 18.5t-75 51t-50.5 77t-18.5 95.5t18.5 95.5t50.5 77t75 51t93 18.5t93 -18.5t74.5 -51t49 -77
t17.5 -95.5t-17.5 -95.5t-49 -77t-74.5 -51t-93 -18.5z" />
    <glyph glyph-name="multiply" unicode="&#xd7;" horiz-adv-x="1651" 
d="M116 506l446 467l-447 469l272 272l440 -463l443 464l263 -273l-443 -466l446 -467l-266 -277l-445 466l-443 -465z" />
    <glyph glyph-name="Oslash" unicode="&#xd8;" horiz-adv-x="2458" 
d="M2259 2328l-220 -320q74 -78 132.5 -172t99.5 -201t62.5 -225.5t21.5 -247.5q0 -173 -39 -329t-110.5 -289t-173.5 -239.5t-227 -181.5t-270.5 -115.5t-305.5 -40.5q-142 0 -270.5 30.5t-243.5 89.5l-225 -326l-292 229l221 321q-149 159 -232.5 375t-83.5 475
q0 175 39.5 331t111.5 288t174 238t227.5 180t270.5 113.5t304 39.5q140 0 268.5 -31t243.5 -89l225 326zM1229 436q129 0 237.5 53t187 148.5t122.5 228.5t44 294q0 116 -23 216.5t-66 185.5l-740 -1074q110 -52 238 -52zM1465 1829q-109 52 -236 52q-129 0 -238 -52
t-187.5 -147t-123 -228t-44.5 -294q0 -117 23 -218t66 -186z" />
    <glyph glyph-name="Ugrave" unicode="&#xd9;" horiz-adv-x="2154" 
d="M1435 2318h516v-1461q0 -201 -64.5 -365t-180.5 -281t-277 -180.5t-355 -63.5q-195 0 -355 63.5t-275 180t-178 280.5t-63 365v1462h523v-1462q0 -96 27.5 -172t76.5 -129t115.5 -81t144.5 -28q74 0 137.5 26t109.5 77.5t72 128.5t26 178v1462zM1037 2972l306 -438h-409
l-421 438h524z" />
    <glyph glyph-name="Uacute" unicode="&#xda;" horiz-adv-x="2154" 
d="M1435 2318h516v-1461q0 -201 -64.5 -365t-180.5 -281t-277 -180.5t-355 -63.5q-195 0 -355 63.5t-275 180t-178 280.5t-63 365v1462h523v-1462q0 -96 27.5 -172t76.5 -129t115.5 -81t144.5 -28q74 0 137.5 26t109.5 77.5t72 128.5t26 178v1462zM1659 2965l-420 -438h-409
l305 438h524z" />
    <glyph glyph-name="Ucircumflex" unicode="&#xdb;" horiz-adv-x="2154" 
d="M1435 2318h516v-1461q0 -201 -64.5 -365t-180.5 -281t-277 -180.5t-355 -63.5q-195 0 -355 63.5t-275 180t-178 280.5t-63 365v1462h523v-1462q0 -96 27.5 -172t76.5 -129t115.5 -81t144.5 -28q74 0 137.5 26t109.5 77.5t72 128.5t26 178v1462zM1274 2527l-179 206
l-184 -206h-373l416 440h275l422 -440h-377z" />
    <glyph glyph-name="Udieresis" unicode="&#xdc;" horiz-adv-x="2154" 
d="M1435 2318h516v-1461q0 -201 -64.5 -365t-180.5 -281t-277 -180.5t-355 -63.5q-195 0 -355 63.5t-275 180t-178 280.5t-63 365v1462h523v-1462q0 -96 27.5 -172t76.5 -129t115.5 -81t144.5 -28q74 0 137.5 26t109.5 77.5t72 128.5t26 178v1462zM504 2736q0 51 18.5 95.5
t50.5 77t75.5 51t93.5 18.5t92.5 -18.5t74 -51t49.5 -77t18 -95.5t-18 -95.5t-49.5 -77t-74 -51t-92.5 -18.5t-93.5 18.5t-75.5 51t-50.5 77t-18.5 95.5zM1177 2736q0 51 18.5 95.5t51 77t76 51t93.5 18.5t92.5 -18.5t74 -51t49.5 -77t18 -95.5t-18 -95.5t-49.5 -77t-74 -51
t-92.5 -18.5t-93.5 18.5t-76 51t-51 77t-18.5 95.5z" />
    <glyph glyph-name="Yacute" unicode="&#xdd;" horiz-adv-x="2097" 
d="M1308 959v-959h-521v953l-781 1365h601l451 -853l480 853h561zM1136 2950h524l-420 -438h-409z" />
    <glyph glyph-name="Thorn" unicode="&#xde;" horiz-adv-x="1858" 
d="M730 1930h306q166 0 306.5 -55.5t242 -154.5t158.5 -236t57 -301q0 -109 -25.5 -206.5t-73.5 -180.5t-116 -150t-152.5 -113.5t-184 -71.5t-210.5 -25h-308v-436h-504v2318h504v-388zM982 905q62 0 117 17t96.5 52.5t65.5 90t24 129.5q0 74 -24 125.5t-66 84t-99 47
t-124 14.5h-242v-560h252z" />
    <glyph glyph-name="germandbls" unicode="&#xdf;" horiz-adv-x="1960" 
d="M670 0h-496v1698q0 187 60.5 324t163 226.5t238 133t285.5 43.5q159 0 293.5 -46.5t232 -131.5t152.5 -205t55 -267q0 -80 -15.5 -140t-39.5 -105.5t-51 -80l-51 -64.5t-39.5 -58t-15.5 -61q0 -35 18.5 -62t49 -51t69 -48t79 -53.5t79 -67.5t69 -89t49 -119t18.5 -158
q0 -148 -52 -268.5t-143.5 -205.5t-217 -131t-273.5 -46q-56 0 -106 6.5t-96.5 18t-91 27t-90.5 33.5l64 403q30 -11 64.5 -19.5t69 -15t68 -10t61.5 -3.5q61 0 109 16.5t81 46.5t50.5 71t17.5 90q0 55 -21 96t-54.5 73t-77 58l-88.5 52t-88 54.5t-77 65.5t-54.5 84.5
t-20.5 112.5q0 63 19.5 107t48.5 78.5t62.5 63.5t62.5 64t48.5 80t19.5 111q0 63 -18.5 110t-50.5 79t-75 48t-93 16q-63 0 -111.5 -24t-81.5 -67t-50.5 -103t-17.5 -132v-1658z" />
    <glyph glyph-name="agrave" unicode="&#xe0;" 
d="M1541 -29q-98 0 -180.5 11.5t-146.5 36.5t-107 64t-62 95q-37 -58 -86 -98t-105 -65t-115.5 -36.5t-116.5 -11.5q-113 0 -212 38.5t-173 108.5t-116.5 167t-42.5 213q0 120 46 219t131 170t205 110.5t268 39.5q75 0 144.5 -9t123.5 -23v49q0 54 -19.5 93.5t-55 65t-85 38
t-110.5 12.5q-53 0 -107.5 -8t-107 -23t-102 -35.5t-91.5 -44.5l-143 324q70 51 150.5 87t165.5 59t172 34t170 11q160 0 282.5 -38.5t206 -113.5t126.5 -186t43 -257v-495q0 -53 5 -90.5t17.5 -65.5t33 -49t51.5 -40zM996 681q-36 11 -86.5 18.5t-105.5 7.5
q-50 0 -96.5 -10t-82.5 -32t-57.5 -57t-21.5 -85q0 -42 15 -73.5t41 -52.5t59.5 -31t71.5 -10q49 0 96.5 16t84.5 47.5t59.5 78t22.5 106.5v77zM777 2382l285 -541h-382l-393 541h490z" />
    <glyph glyph-name="aacute" unicode="&#xe1;" 
d="M1541 -29q-98 0 -180.5 11.5t-146.5 36.5t-107 64t-62 95q-37 -58 -86 -98t-105 -65t-115.5 -36.5t-116.5 -11.5q-113 0 -212 38.5t-173 108.5t-116.5 167t-42.5 213q0 120 46 219t131 170t205 110.5t268 39.5q75 0 144.5 -9t123.5 -23v49q0 54 -19.5 93.5t-55 65t-85 38
t-110.5 12.5q-53 0 -107.5 -8t-107 -23t-102 -35.5t-91.5 -44.5l-143 324q70 51 150.5 87t165.5 59t172 34t170 11q160 0 282.5 -38.5t206 -113.5t126.5 -186t43 -257v-495q0 -53 5 -90.5t17.5 -65.5t33 -49t51.5 -40zM996 681q-36 11 -86.5 18.5t-105.5 7.5
q-50 0 -96.5 -10t-82.5 -32t-57.5 -57t-21.5 -85q0 -42 15 -73.5t41 -52.5t59.5 -31t71.5 -10q49 0 96.5 16t84.5 47.5t59.5 78t22.5 106.5v77zM1406 2382l-393 -541h-382l285 541h490z" />
    <glyph glyph-name="acircumflex" unicode="&#xe2;" 
d="M1541 -29q-98 0 -180.5 11.5t-146.5 36.5t-107 64t-62 95q-37 -58 -86 -98t-105 -65t-115.5 -36.5t-116.5 -11.5q-113 0 -212 38.5t-173 108.5t-116.5 167t-42.5 213q0 120 46 219t131 170t205 110.5t268 39.5q75 0 144.5 -9t123.5 -23v49q0 54 -19.5 93.5t-55 65t-85 38
t-110.5 12.5q-53 0 -107.5 -8t-107 -23t-102 -35.5t-91.5 -44.5l-143 324q70 51 150.5 87t165.5 59t172 34t170 11q160 0 282.5 -38.5t206 -113.5t126.5 -186t43 -257v-495q0 -53 5 -90.5t17.5 -65.5t33 -49t51.5 -40zM996 681q-36 11 -86.5 18.5t-105.5 7.5
q-50 0 -96.5 -10t-82.5 -32t-57.5 -57t-21.5 -85q0 -42 15 -73.5t41 -52.5t59.5 -31t71.5 -10q49 0 96.5 16t84.5 47.5t59.5 78t22.5 106.5v77zM1027 1840l-167 256l-172 -256h-349l388 543h258l395 -543h-353z" />
    <glyph glyph-name="atilde" unicode="&#xe3;" 
d="M1541 -29q-98 0 -180.5 11.5t-146.5 36.5t-107 64t-62 95q-37 -58 -86 -98t-105 -65t-115.5 -36.5t-116.5 -11.5q-113 0 -212 38.5t-173 108.5t-116.5 167t-42.5 213q0 120 46 219t131 170t205 110.5t268 39.5q75 0 144.5 -9t123.5 -23v49q0 54 -19.5 93.5t-55 65t-85 38
t-110.5 12.5q-53 0 -107.5 -8t-107 -23t-102 -35.5t-91.5 -44.5l-143 324q70 51 150.5 87t165.5 59t172 34t170 11q160 0 282.5 -38.5t206 -113.5t126.5 -186t43 -257v-495q0 -53 5 -90.5t17.5 -65.5t33 -49t51.5 -40zM391 1861q8 116 36 202t69 143t92 85.5t105 28.5
q46 0 82 -14t64 -35t50.5 -45l41.5 -45t36 -35t35 -14q32 0 55.5 42t35.5 137h249q-9 -116 -37 -202t-69 -143t-91.5 -85.5t-104.5 -28.5q-46 0 -82 14t-64.5 35t-50.5 45.5l-41 45.5t-36 35t-35 14q-32 0 -55 -43t-37 -137h-248zM733 356q49 0 96.5 16t84.5 47.5t59.5 78
t22.5 106.5v77q-36 11 -86.5 18.5t-105.5 7.5q-50 0 -96.5 -10t-82.5 -32t-57.5 -57t-21.5 -85q0 -42 15 -73.5t41 -52.5t59.5 -31t71.5 -10z" />
    <glyph glyph-name="adieresis" unicode="&#xe4;" 
d="M1541 -29q-98 0 -180.5 11.5t-146.5 36.5t-107 64t-62 95q-37 -58 -86 -98t-105 -65t-115.5 -36.5t-116.5 -11.5q-113 0 -212 38.5t-173 108.5t-116.5 167t-42.5 213q0 120 46 219t131 170t205 110.5t268 39.5q75 0 144.5 -9t123.5 -23v49q0 54 -19.5 93.5t-55 65t-85 38
t-110.5 12.5q-53 0 -107.5 -8t-107 -23t-102 -35.5t-91.5 -44.5l-143 324q70 51 150.5 87t165.5 59t172 34t170 11q160 0 282.5 -38.5t206 -113.5t126.5 -186t43 -257v-495q0 -53 5 -90.5t17.5 -65.5t33 -49t51.5 -40zM996 681q-36 11 -86.5 18.5t-105.5 7.5
q-50 0 -96.5 -10t-82.5 -32t-57.5 -57t-21.5 -85q0 -42 15 -73.5t41 -52.5t59.5 -31t71.5 -10q49 0 96.5 16t84.5 47.5t59.5 78t22.5 106.5v77zM285 2068q0 51 18.5 95.5t50.5 77t75.5 51t93.5 18.5t93 -18.5t74.5 -51t49 -77t17.5 -95.5t-17.5 -95.5t-49 -77t-74.5 -51
t-93 -18.5t-93.5 18.5t-75.5 51t-50.5 77t-18.5 95.5zM959 2068q0 51 18.5 95.5t50.5 77t75.5 51t93.5 18.5t92.5 -18.5t74 -51t49.5 -77t18 -95.5t-18 -95.5t-49.5 -77t-74 -51t-92.5 -18.5t-93.5 18.5t-75.5 51t-50.5 77t-18.5 95.5z" />
    <glyph glyph-name="aring" unicode="&#xe5;" 
d="M1541 -29q-98 0 -180.5 11.5t-146.5 36.5t-107 64t-62 95q-37 -58 -86 -98t-105 -65t-115.5 -36.5t-116.5 -11.5q-113 0 -212 38.5t-173 108.5t-116.5 167t-42.5 213q0 120 46 219t131 170t205 110.5t268 39.5q75 0 144.5 -9t123.5 -23v49q0 54 -19.5 93.5t-55 65t-85 38
t-110.5 12.5q-53 0 -107.5 -8t-107 -23t-102 -35.5t-91.5 -44.5l-143 324q70 51 150.5 87t165.5 59t172 34t170 11q160 0 282.5 -38.5t206 -113.5t126.5 -186t43 -257v-495q0 -53 5 -90.5t17.5 -65.5t33 -49t51.5 -40zM996 681q-36 11 -86.5 18.5t-105.5 7.5
q-50 0 -96.5 -10t-82.5 -32t-57.5 -57t-21.5 -85q0 -42 15 -73.5t41 -52.5t59.5 -31t71.5 -10q49 0 96.5 16t84.5 47.5t59.5 78t22.5 106.5v77zM507 2178q0 73 27.5 137t75 111.5t111.5 75t137 27.5t137 -27.5t112 -75t75.5 -111.5t27.5 -137t-27.5 -137t-75.5 -112
t-112 -75.5t-137 -27.5t-137 27.5t-111.5 75.5t-75 112t-27.5 137zM1021 2178q0 33 -13 62.5t-35 51.5t-51.5 35t-63.5 13q-33 0 -62.5 -13t-51.5 -35t-35 -51.5t-13 -62.5q0 -34 13 -63.5t35 -51.5t51.5 -34.5t62.5 -12.5q34 0 63.5 12.5t51.5 34.5t35 51.5t13 63.5z" />
    <glyph glyph-name="ae" unicode="&#xe6;" horiz-adv-x="2598" 
d="M1811 -33q-164 0 -308 52t-253 155q-49 -46 -111.5 -84t-135 -65.5t-154.5 -42.5t-170 -15q-145 0 -257 41t-188 111.5t-115.5 166t-39.5 205.5q0 121 46 221t131 171.5t205 110.5t268 39q75 0 144.5 -9t123.5 -23v49q0 54 -19.5 93.5t-54.5 65t-85 38t-111 12.5
q-53 0 -107 -8t-107 -23t-102 -35.5t-91 -44.5l-143 324q70 51 150.5 87t165 59t171.5 34t170 11q159 0 281 -38t203 -115q99 75 217.5 114t252.5 39q173 0 309 -63t230 -174t143.5 -263.5t49.5 -332.5q0 -37 -2 -80t-4 -75h-1022q9 -74 37 -133.5t74.5 -101.5t110 -64.5
t141.5 -22.5q103 0 188.5 37.5t163.5 96.5l219 -307q-59 -50 -130 -89.5t-149.5 -67t-163.5 -42t-172 -14.5zM997 681q-36 11 -86.5 18.5t-105.5 7.5q-128 0 -193 -48.5t-65 -136.5q0 -42 15 -73t41 -52t59.5 -31t71.5 -10q49 0 96.5 16t84.5 47.5t59.5 78t22.5 106.5v77z
M2048 982q-8 61 -28.5 113t-54 90t-80 59t-106.5 21q-58 0 -106 -20t-84.5 -56.5t-60 -89t-31.5 -117.5h551z" />
    <glyph glyph-name="ccedilla" unicode="&#xe7;" horiz-adv-x="1549" 
d="M1506 199q-92 -78 -204 -134t-239 -81l-93 -155q45 -8 87 -27.5t74 -50t51.5 -72t19.5 -95.5q0 -78 -32 -133t-84.5 -90t-120 -51t-139.5 -16q-74 0 -148 21t-134 58l65 183q60 -32 112 -45t89 -13q19 0 37 4.5t31.5 14t21.5 25t8 37.5q0 37 -28.5 59.5t-70 35.5
t-87.5 17.5t-82 4.5l155 277q-137 15 -263.5 74.5t-223.5 163.5t-154.5 252.5t-57.5 342.5q0 134 28.5 249.5t80.5 211t125 169t161.5 124t190 77t211.5 26.5q83 0 165 -15t158 -42t142.5 -65t119.5 -85l-202 -342q-70 52 -145.5 80.5t-158.5 28.5q-84 0 -153 -29.5
t-118.5 -83t-76.5 -128t-27 -164.5t27 -165.5t75.5 -129.5t117.5 -84.5t153 -30.5q85 0 160 30.5t145 84.5z" />
    <glyph glyph-name="egrave" unicode="&#xe8;" 
d="M1520 179q-59 -50 -130 -89t-149.5 -66.5t-163 -42t-171.5 -14.5q-167 0 -314 53.5t-257.5 159.5t-174.5 262.5t-64 363.5q0 134 28 250t79 211.5t122.5 169t159 124t188.5 76.5t210 26q172 0 308 -63t230.5 -174t144 -263.5t49.5 -332.5q0 -37 -2 -80t-4 -75h-1022
q9 -74 37 -133.5t74 -101.5t109.5 -64.5t141.5 -22.5q104 0 189 37.5t164 96.5zM1142 982q-8 61 -28 113t-54 90t-80.5 59t-106.5 21q-57 0 -105 -20t-84.5 -56.5t-60 -89t-31.5 -117.5h550zM863 2382l286 -541h-383l-393 541h490z" />
    <glyph glyph-name="eacute" unicode="&#xe9;" 
d="M1520 179q-59 -50 -130 -89t-149.5 -66.5t-163 -42t-171.5 -14.5q-167 0 -314 53.5t-257.5 159.5t-174.5 262.5t-64 363.5q0 134 28 250t79 211.5t122.5 169t159 124t188.5 76.5t210 26q172 0 308 -63t230.5 -174t144 -263.5t49.5 -332.5q0 -37 -2 -80t-4 -75h-1022
q9 -74 37 -133.5t74 -101.5t109.5 -64.5t141.5 -22.5q104 0 189 37.5t164 96.5zM1142 982q-8 61 -28 113t-54 90t-80.5 59t-106.5 21q-57 0 -105 -20t-84.5 -56.5t-60 -89t-31.5 -117.5h550zM1450 2382l-393 -541h-382l286 541h489z" />
    <glyph glyph-name="ecircumflex" unicode="&#xea;" 
d="M1520 179q-59 -50 -130 -89t-149.5 -66.5t-163 -42t-171.5 -14.5q-167 0 -314 53.5t-257.5 159.5t-174.5 262.5t-64 363.5q0 134 28 250t79 211.5t122.5 169t159 124t188.5 76.5t210 26q172 0 308 -63t230.5 -174t144 -263.5t49.5 -332.5q0 -37 -2 -80t-4 -75h-1022
q9 -74 37 -133.5t74 -101.5t109.5 -64.5t141.5 -22.5q104 0 189 37.5t164 96.5zM1055 1840l-167 256l-172 -256h-348l387 543h258l395 -543h-353zM1142 982q-8 61 -28 113t-54 90t-80.5 59t-106.5 21q-57 0 -105 -20t-84.5 -56.5t-60 -89t-31.5 -117.5h550z" />
    <glyph glyph-name="edieresis" unicode="&#xeb;" 
d="M1520 179q-59 -50 -130 -89t-149.5 -66.5t-163 -42t-171.5 -14.5q-167 0 -314 53.5t-257.5 159.5t-174.5 262.5t-64 363.5q0 134 28 250t79 211.5t122.5 169t159 124t188.5 76.5t210 26q172 0 308 -63t230.5 -174t144 -263.5t49.5 -332.5q0 -37 -2 -80t-4 -75h-1022
q9 -74 37 -133.5t74 -101.5t109.5 -64.5t141.5 -22.5q104 0 189 37.5t164 96.5zM332 2068q0 51 18.5 95.5t50.5 77t75.5 51t93.5 18.5t93 -18.5t74 -51t48.5 -77t17.5 -95.5t-17.5 -95.5t-48.5 -77t-74 -51t-93 -18.5t-93.5 18.5t-75.5 51t-50.5 77t-18.5 95.5zM1006 2068
q0 51 18.5 95.5t50.5 77t75 51t93 18.5t93 -18.5t74.5 -51t49.5 -77t18 -95.5t-18 -95.5t-49.5 -77t-74.5 -51t-93 -18.5t-93 18.5t-75 51t-50.5 77t-18.5 95.5zM1142 982q-8 61 -28 113t-54 90t-80.5 59t-106.5 21q-57 0 -105 -20t-84.5 -56.5t-60 -89t-31.5 -117.5h550z
" />
    <glyph glyph-name="igrave" unicode="&#xec;" horiz-adv-x="844" 
d="M174 1630h497v-1630h-497v1630zM-133 2381h490l286 -541h-382z" />
    <glyph glyph-name="iacute" unicode="&#xed;" horiz-adv-x="844" 
d="M174 1630h497v-1630h-497v1630zM497 2381h489l-393 -541h-382z" />
    <glyph glyph-name="icircumflex" unicode="&#xee;" horiz-adv-x="845" 
d="M944 1840h-353l-167 256l-172 -256h-348l388 543h257zM174 1630h498v-1630h-498v1630z" />
    <glyph glyph-name="idieresis" unicode="&#xef;" horiz-adv-x="844" 
d="M88 1822q-50 0 -93.5 18.5t-75.5 51t-50.5 77t-18.5 95.5t18.5 95.5t50.5 77t75.5 51t93.5 18.5t93 -18.5t74.5 -51t49.5 -77t18 -95.5t-18 -95.5t-49.5 -77t-74.5 -51t-93 -18.5zM762 1822q-50 0 -93.5 18.5t-75.5 51t-50.5 77t-18.5 95.5t18.5 95.5t50.5 77t75.5 51
t93.5 18.5t93 -18.5t74.5 -51t49 -77t17.5 -95.5t-17.5 -95.5t-49 -77t-74.5 -51t-93 -18.5zM174 1630h497v-1630h-497v1630z" />
    <glyph glyph-name="eth" unicode="&#xf0;" horiz-adv-x="1742" 
d="M652 2403q112 -56 246 -167l219 125l194 -204l-208 -119q105 -116 202 -255t171.5 -294.5t119 -324t44.5 -341.5q0 -195 -58 -353.5t-161.5 -270t-246.5 -172t-312 -60.5q-171 0 -312 61.5t-241 172t-155 262.5t-55 333q0 175 52.5 322t145.5 254t220.5 169.5t277.5 69.5
q36 2 67.5 -1.5t59.5 -14.5q-34 63 -77 123.5t-94 117.5l-230 -132l-193 206l221 126q-54 48 -107.5 89t-104.5 76zM862 401q75 0 131 32.5t92.5 87t55 126.5t18.5 150t-17.5 148.5t-54 123.5t-92.5 84.5t-132 31.5q-77 0 -133 -31.5t-92 -85t-53.5 -124t-17.5 -147.5
q0 -78 17.5 -149.5t54 -126.5t92 -87.5t131.5 -32.5z" />
    <glyph glyph-name="ntilde" unicode="&#xf1;" horiz-adv-x="1774" 
d="M1119 0v960q0 55 -12.5 101t-38.5 79.5t-66 52t-94 18.5q-60 0 -105 -22.5t-74.5 -61t-44.5 -91t-15 -112.5v-924h-497v1630h403l32 -189q39 58 89.5 100t109 69t124.5 40t138 13q145 0 249 -50t171 -139t98 -211.5t31 -268.5v-994h-498zM433 1862q8 116 36 202t69 143
t91.5 85.5t104.5 28.5q46 0 82 -14t64.5 -35t51 -45l41.5 -45t36 -35t35 -14q31 0 54.5 42t36.5 137h248q-8 -116 -36 -202t-69 -143t-91.5 -85.5t-104.5 -28.5q-46 0 -82 14t-64.5 35t-50.5 45.5l-41 45.5t-36 35t-35 14q-32 0 -55.5 -43t-36.5 -137h-248z" />
    <glyph glyph-name="ograve" unicode="&#xf2;" horiz-adv-x="1805" 
d="M902 -33q-170 0 -317.5 60t-256.5 171t-171.5 267.5t-62.5 350.5q0 129 28.5 242t80 207t125 168t163 125t194 78t218.5 27q171 0 318.5 -59.5t256 -170t171 -266.5t62.5 -349q0 -194 -62.5 -351t-171.5 -268t-256.5 -171.5t-318.5 -60.5zM902 408q67 0 124.5 30.5
t100 85t66.5 129t24 161.5t-24 161t-66.5 127t-100 83t-124.5 30q-68 0 -125.5 -30t-99.5 -83t-65.5 -126.5t-23.5 -161.5q0 -87 24 -161.5t66 -129t99.5 -85t124.5 -30.5zM382 2382h490l285 -541h-382z" />
    <glyph glyph-name="oacute" unicode="&#xf3;" horiz-adv-x="1805" 
d="M902 -33q-170 0 -317.5 60t-256.5 171t-171.5 267.5t-62.5 350.5q0 129 28.5 242t80 207t125 168t163 125t194 78t218.5 27q171 0 318.5 -59.5t256 -170t171 -266.5t62.5 -349q0 -194 -62.5 -351t-171.5 -268t-256.5 -171.5t-318.5 -60.5zM902 408q67 0 124.5 30.5
t100 85t66.5 129t24 161.5t-24 161t-66.5 127t-100 83t-124.5 30q-68 0 -125.5 -30t-99.5 -83t-65.5 -126.5t-23.5 -161.5q0 -87 24 -161.5t66 -129t99.5 -85t124.5 -30.5zM949 2382h489l-393 -541h-382z" />
    <glyph glyph-name="ocircumflex" unicode="&#xf4;" horiz-adv-x="1805" 
d="M902 -33q-170 0 -317.5 60t-256.5 171t-171.5 267.5t-62.5 350.5q0 129 28.5 242t80 207t125 168t163 125t194 78t218.5 27q171 0 318.5 -59.5t256 -170t171 -266.5t62.5 -349q0 -194 -62.5 -351t-171.5 -268t-256.5 -171.5t-318.5 -60.5zM902 408q67 0 124.5 30.5
t100 85t66.5 129t24 161.5t-24 161t-66.5 127t-100 83t-124.5 30q-68 0 -125.5 -30t-99.5 -83t-65.5 -126.5t-23.5 -161.5q0 -87 24 -161.5t66 -129t99.5 -85t124.5 -30.5zM1422 1840h-352l-167 256l-172 -256h-348l387 543h257z" />
    <glyph glyph-name="otilde" unicode="&#xf5;" horiz-adv-x="1805" 
d="M426 1861q9 116 37 202t69 143t91.5 85.5t104.5 28.5q46 0 82 -14t64.5 -35t51 -45l41.5 -45t36 -35t35 -14q31 0 55 42t36 137h249q-8 -116 -36 -202t-69.5 -143t-92 -85.5t-104.5 -28.5q-46 0 -82 14t-64.5 35t-50.5 45.5l-41 45.5t-36 35t-35 14q-32 0 -55.5 -43
t-35.5 -137h-250zM94 816q0 129 28.5 242t80 207t125 168t163 125t194 78t218.5 27q171 0 318.5 -59.5t256 -170t171 -266.5t62.5 -349q0 -194 -62.5 -351t-171.5 -268t-256.5 -171.5t-318.5 -60.5q-170 0 -317.5 60t-256.5 171t-171.5 267.5t-62.5 350.5zM1217 814
q0 87 -24 161t-66.5 127t-100 83t-124.5 30q-68 0 -125.5 -30t-99.5 -83t-65.5 -126.5t-23.5 -161.5q0 -87 24 -161.5t66 -129t99.5 -85t124.5 -30.5t124.5 30.5t100 85t66.5 129t24 161.5z" />
    <glyph glyph-name="odieresis" unicode="&#xf6;" horiz-adv-x="1805" 
d="M568 1826q-50 0 -94 18.5t-76 51t-50.5 77t-18.5 95.5t18.5 95.5t50.5 77t76 51t94 18.5t92.5 -18.5t74 -51t49.5 -77t18 -95.5t-18 -95.5t-49.5 -77t-74 -51t-92.5 -18.5zM902 -33q-170 0 -317.5 60t-256.5 171t-171.5 267.5t-62.5 350.5q0 129 28.5 242t80 207t125 168
t163 125t194 78t218.5 27q171 0 318.5 -59.5t256 -170t171 -266.5t62.5 -349q0 -194 -62.5 -351t-171.5 -268t-256.5 -171.5t-318.5 -60.5zM902 408q67 0 124.5 30.5t100 85t66.5 129t24 161.5t-24 161t-66.5 127t-100 83t-124.5 30q-68 0 -125.5 -30t-99.5 -83
t-65.5 -126.5t-23.5 -161.5q0 -87 24 -161.5t66 -129t99.5 -85t124.5 -30.5zM1241 1826q-50 0 -93 18.5t-75 51t-50.5 77t-18.5 95.5t18.5 95.5t50.5 77t75 51t93 18.5t93 -18.5t74.5 -51t49 -77t17.5 -95.5t-17.5 -95.5t-49 -77t-74.5 -51t-93 -18.5z" />
    <glyph glyph-name="divide" unicode="&#xf7;" horiz-adv-x="1826" 
d="M913 39q-54 0 -101 20.5t-82.5 56.5t-55.5 84.5t-20 104.5q0 55 20 103.5t55.5 84.5t82.5 57t101 21t101.5 -21t82.5 -57t55.5 -84.5t20.5 -103.5q0 -56 -20.5 -104.5t-55.5 -84.5t-82.5 -56.5t-101.5 -20.5zM913 1376q-54 0 -101 21t-82.5 57t-55.5 84.5t-20 104.5
q0 55 20 103.5t55.5 84.5t82.5 57t101 21t101.5 -21t82.5 -57t55.5 -84.5t20.5 -103.5q0 -56 -20.5 -104.5t-55.5 -84.5t-82.5 -57t-101.5 -21zM122 1177h1582v-407h-1582v407z" />
    <glyph glyph-name="oslash" unicode="&#xf8;" horiz-adv-x="1805" 
d="M1595 1701l-150 -237q123 -111 194.5 -275t71.5 -371q0 -194 -62.5 -351t-171.5 -268t-256.5 -171.5t-318.5 -60.5q-97 0 -185 19.5t-168 55.5l-155 -245l-183 132l150 237q-124 112 -195.5 277t-71.5 373q0 129 28.5 242t80 207t125 168t163 125t194 78t218.5 27
q97 0 186 -19.5t169 -56.5l155 245zM902 407q67 0 125 30.5t100.5 85t66.5 129t24 162.5q0 62 -12 116t-34 101l-379 -602q52 -22 109 -22zM1010 1195q-52 22 -108 22q-68 0 -125.5 -30t-99.5 -83t-66 -127.5t-24 -162.5q0 -62 11.5 -116.5t33.5 -101.5z" />
    <glyph glyph-name="ugrave" unicode="&#xf9;" horiz-adv-x="1767" 
d="M1593 0h-403l-32 187q-40 -58 -89.5 -99.5t-107.5 -68.5t-123 -39.5t-135 -12.5q-146 0 -249.5 50t-169.5 139t-96.5 212t-30.5 269v993h498v-960q0 -54 12 -100t37.5 -79.5t64.5 -52.5t94 -19q60 0 103.5 22.5t72 61.5t42.5 91.5t14 112.5v923h498v-1630zM347 2384h489
l286 -541h-382z" />
    <glyph glyph-name="uacute" unicode="&#xfa;" horiz-adv-x="1767" 
d="M1593 0h-403l-32 187q-40 -58 -89.5 -99.5t-107.5 -68.5t-123 -39.5t-135 -12.5q-146 0 -249.5 50t-169.5 139t-96.5 212t-30.5 269v993h498v-960q0 -54 12 -100t37.5 -79.5t64.5 -52.5t94 -19q60 0 103.5 22.5t72 61.5t42.5 91.5t14 112.5v923h498v-1630zM928 2384h489
l-393 -541h-381z" />
    <glyph glyph-name="ucircumflex" unicode="&#xfb;" horiz-adv-x="1767" 
d="M1593 0h-403l-32 187q-40 -58 -89.5 -99.5t-107.5 -68.5t-123 -39.5t-135 -12.5q-146 0 -249.5 50t-169.5 139t-96.5 212t-30.5 269v993h498v-960q0 -54 12 -100t37.5 -79.5t64.5 -52.5t94 -19q60 0 103.5 22.5t72 61.5t42.5 91.5t14 112.5v923h498v-1630zM1413 1842
h-352l-167 256l-172 -256h-349l388 543h257z" />
    <glyph glyph-name="udieresis" unicode="&#xfc;" horiz-adv-x="1767" 
d="M1593 0h-403l-32 187q-40 -58 -89.5 -99.5t-107.5 -68.5t-123 -39.5t-135 -12.5q-146 0 -249.5 50t-169.5 139t-96.5 212t-30.5 269v993h498v-960q0 -54 12 -100t37.5 -79.5t64.5 -52.5t94 -19q60 0 103.5 22.5t72 61.5t42.5 91.5t14 112.5v923h498v-1630zM540 1825
q-50 0 -93.5 18.5t-75.5 51t-50.5 77t-18.5 95.5t18.5 95.5t50.5 77t75.5 51t93.5 18.5t93 -18.5t74.5 -51t49 -77t17.5 -95.5t-17.5 -95.5t-49 -77t-74.5 -51t-93 -18.5zM1214 1825q-50 0 -93.5 18.5t-75.5 51t-50.5 77t-18.5 95.5t18.5 95.5t50.5 77t75.5 51t93.5 18.5
t92.5 -18.5t74 -51t49.5 -77t18 -95.5t-18 -95.5t-49.5 -77t-74 -51t-92.5 -18.5z" />
    <glyph glyph-name="yacute" unicode="&#xfd;" horiz-adv-x="1741" 
d="M1241 1630h492l-703 -1879q-53 -142 -118.5 -233t-138.5 -143.5t-151.5 -72.5t-157.5 -20q-92 0 -171 19.5t-160 51.5l63 397q39 -13 81 -20t82 -7q42 0 79.5 9.5t69 31.5t56 57.5t41.5 86.5l21 66l-603 1656h526l332 -1061zM970 2412h489l-393 -541h-381z" />
    <glyph glyph-name="thorn" unicode="&#xfe;" horiz-adv-x="1844" 
d="M669 1490q81 93 183 133t229 40q122 0 218.5 -33.5t170 -92t125.5 -138t85 -172t48 -193t15 -200.5q0 -183 -45 -341t-132 -275t-214.5 -184t-293.5 -67q-112 0 -213 35.5t-176 116.5v-751l-496 -86v3057l496 86v-935zM1251 818q0 84 -19 157t-57 127t-94.5 85t-132.5 31
q-78 0 -133.5 -32.5t-91.5 -87.5t-53 -127.5t-17 -152.5t17.5 -154t53.5 -130t91.5 -89.5t132.5 -33.5q75 0 132 32t95 87.5t57 129.5t19 158z" />
    <glyph glyph-name="ydieresis" unicode="&#xff;" horiz-adv-x="1741" 
d="M1241 1630h492l-703 -1879q-53 -142 -118.5 -233t-138.5 -143.5t-151.5 -72.5t-157.5 -20q-92 0 -171 19.5t-160 51.5l63 397q39 -13 81 -20t82 -7q42 0 79.5 9.5t69 31.5t56 57.5t41.5 86.5l21 66l-603 1656h526l332 -1061zM575 1853q-50 0 -93.5 18.5t-76 51t-51 77
t-18.5 95.5t18.5 95.5t51 77t76 51t93.5 18.5t92.5 -18.5t74 -51t49.5 -77t18 -95.5t-18 -95.5t-49.5 -77t-74 -51t-92.5 -18.5zM1249 1853q-50 0 -93.5 18.5t-75.5 51t-50.5 77t-18.5 95.5t18.5 95.5t50.5 77t75.5 51t93.5 18.5t93 -18.5t74.5 -51t49 -77t17.5 -95.5
t-17.5 -95.5t-49 -77t-74.5 -51t-93 -18.5z" />
    <glyph glyph-name="dotlessi" unicode="&#x131;" horiz-adv-x="844" 
d="M174 1630h497v-1630h-497v1630z" />
    <glyph glyph-name="OE" unicode="&#x152;" horiz-adv-x="3293" 
d="M3151 1852h-910v-452h789v-463h-789v-471h931v-466h-1452v82q-111 -57 -234 -86t-260 -29q-160 0 -305 40.5t-270 115t-226 181.5t-172.5 239.5t-110.5 288.5t-39 329q0 175 39.5 331t112 288t174 238t226.5 180t270 113.5t303 39.5q267 0 492 -115v82h1431v-466z
M1720 1583q-37 70 -88 125t-113.5 93t-135.5 58t-152 20q-130 0 -239 -52t-188 -146.5t-123 -227t-44 -293.5t44 -293.5t122.5 -227.5t188 -147.5t240.5 -52.5q79 0 151.5 20t135 58t114 93t87.5 125v848z" />
    <glyph glyph-name="oe" unicode="&#x153;" horiz-adv-x="2808" 
d="M94 816q0 129 28.5 242t80 207t125 168t163 125t194 78t218.5 27q165 0 306.5 -56t247.5 -159q106 106 244 160.5t296 54.5q173 0 309 -63t230.5 -174t144 -263.5t49.5 -332.5q0 -37 -2 -80t-5 -75h-1022q9 -74 37.5 -133.5t74.5 -101.5t109 -64.5t142 -22.5
q103 0 188.5 37.5t163.5 96.5l219 -307q-60 -50 -130.5 -89.5t-149 -67t-163.5 -42t-172 -14.5q-167 0 -312.5 54t-254.5 160q-106 -103 -247 -158.5t-304 -55.5q-170 0 -317.5 60t-256.5 171t-171.5 267.5t-62.5 350.5zM1217 814q0 87 -24 161t-66.5 127t-100 83t-124.5 30
q-68 0 -125.5 -30t-99.5 -83t-65.5 -126.5t-23.5 -161.5q0 -87 24 -161.5t66 -129t99.5 -85t124.5 -30.5t124.5 30.5t100 85t66.5 129t24 161.5zM2258 982q-8 61 -29 113t-54.5 90t-80.5 59t-107 21q-57 0 -105 -20t-84 -56.5t-59.5 -89t-32.5 -117.5h552z" />
    <glyph glyph-name="Scaron" unicode="&#x160;" horiz-adv-x="1824" 
d="M302 673q144 -104 294.5 -165t296.5 -61q68 0 123.5 14t95 41.5t61 67.5t21.5 92q0 62 -29.5 105t-80.5 74t-118.5 54.5t-144 45.5l-156.5 47t-156.5 59.5t-144 82.5t-118.5 116.5t-80.5 161t-29.5 216.5q0 120 28.5 221t80.5 181.5t124 141.5t159.5 101.5t187 61
t206.5 20.5q108 0 213.5 -20t204.5 -57.5t189 -90.5t167 -118l-223 -356q-128 84 -262 129.5t-255 45.5q-68 0 -123.5 -15t-95.5 -43t-61.5 -69.5t-21.5 -93.5q0 -62 30 -105t81.5 -73.5t120 -52t146 -42.5l158.5 -45t158.5 -58t146 -82t120 -117.5t81.5 -164.5t30 -223
q0 -184 -62.5 -321.5t-170.5 -229t-254 -137t-314 -45.5q-128 0 -245.5 25t-224 70t-202 107.5t-179.5 137.5zM1116 2975h373l-415 -440h-275l-423 440h377l179 -207z" />
    <glyph glyph-name="scaron" unicode="&#x161;" horiz-adv-x="1458" 
d="M278 520q48 -33 97.5 -61.5t101 -49.5t104.5 -33t109 -12q85 0 134.5 30t49.5 88q0 47 -32 75t-84.5 47t-120 34t-137.5 36t-137.5 53t-120 84.5t-84.5 130.5t-32 191q0 138 48 238.5t130.5 165t192 95.5t231.5 31q93 0 178 -16.5t159 -46t138 -70t115 -87.5l-167 -287
q-49 29 -99 52.5t-98 39.5t-93 24.5t-83 8.5q-80 0 -123.5 -31.5t-43.5 -84.5q0 -46 32.5 -74.5t86 -48.5t121.5 -37t139.5 -39.5t139.5 -56t121.5 -87.5t86 -132.5t32.5 -191.5q0 -133 -47 -232.5t-131 -166t-200.5 -99.5t-256.5 -33q-113 0 -204.5 20.5t-169.5 57t-147 87
t-138 109.5zM894 2383h349l-388 -543h-257l-394 543h351l168 -254z" />
    <glyph glyph-name="Ydieresis" unicode="&#x178;" horiz-adv-x="2097" 
d="M740 2478q-50 0 -93.5 18.5t-75.5 51t-50.5 77t-18.5 95.5t18.5 95.5t50.5 77t75.5 51t93.5 18.5t93 -18.5t74.5 -51t49 -77t17.5 -95.5t-17.5 -95.5t-49 -77t-74.5 -51t-93 -18.5zM1414 2478q-50 0 -93.5 18.5t-75.5 51t-50.5 77t-18.5 95.5t18.5 95.5t50.5 77t75.5 51
t93.5 18.5t92.5 -18.5t74 -51t49.5 -77t18 -95.5t-18 -95.5t-49.5 -77t-74 -51t-92.5 -18.5zM1308 959v-959h-521v953l-781 1365h601l451 -853l480 853h561z" />
    <glyph glyph-name="Zcaron" unicode="&#x17d;" horiz-adv-x="1857" 
d="M1744 0h-1642v370l964 1495h-930v453h1596v-375l-977 -1483h989v-460zM960 2754l184 207h372l-414 -440h-275l-423 440h377z" />
    <glyph glyph-name="zcaron" unicode="&#x17e;" horiz-adv-x="1557" 
d="M1438 0h-1332v369l659 842h-619v419h1286v-354l-675 -852h681v-424zM815 2129l172 254h349l-389 -543h-257l-395 543h353z" />
    <glyph glyph-name="florin" unicode="&#x192;" horiz-adv-x="1521" 
d="M527 1450l36 295q17 143 73 244.5t142 166.5t197.5 95.5t239.5 30.5q63 0 130.5 -6.5t133.5 -19.5l-47 -365q-48 7 -86 10t-61 3q-78 0 -127.5 -25.5t-79.5 -73t-45.5 -115.5t-25.5 -152l-11 -88h385l-46 -363h-383l-101 -831q-43 -355 -232.5 -533t-522.5 -178
q-31 0 -63.5 1.5t-64.5 4.5l47 368h53q80 0 135 20.5t91 58.5t55.5 91.5t27.5 119.5l106 878h-336l51 363h329z" />
    <glyph glyph-name="circumflex" unicode="&#x2c6;" horiz-adv-x="1167" 
d="M1103 1861h-352l-167 256l-172 -256h-349l388 543h258z" />
    <glyph glyph-name="tilde" unicode="&#x2dc;" horiz-adv-x="1184" 
d="M116 1896q9 116 37 202t69 143t91.5 85.5t104.5 28.5q46 0 82 -14t64.5 -35t50.5 -45l41 -45t36 -35t35 -14q32 0 55.5 42t36.5 137h248q-8 -116 -36 -202t-69 -143t-92 -85.5t-105 -28.5q-46 0 -81.5 14t-64 35t-50.5 45.5l-41 45.5t-36 35t-35 14q-32 0 -55.5 -43
t-36.5 -137h-249z" />
    <glyph glyph-name="endash" unicode="&#x2013;" horiz-adv-x="1831" 
d="M167 1066h1497v-371h-1497v371z" />
    <glyph glyph-name="emdash" unicode="&#x2014;" horiz-adv-x="3277" 
d="M167 1066h2943v-371h-2943v371z" />
    <glyph glyph-name="quoteleft" unicode="&#x2018;" horiz-adv-x="852" 
d="M768 2221l-86 -48.5t-82.5 -58.5t-61.5 -75t-24 -97q0 -39 11.5 -70t29.5 -58.5t38 -54.5t38 -57t29.5 -65t11.5 -80q0 -55 -19.5 -106.5t-56 -91t-88 -63.5t-115.5 -24q-73 0 -127.5 31.5t-91 84t-54.5 121.5t-18 144q0 81 20 162.5t57 159t89.5 148t117.5 129
t140.5 103t158.5 70.5l83 -204v0z" />
    <glyph glyph-name="quoteright" unicode="&#x2019;" horiz-adv-x="856" 
d="M101 1476l86 48.5t82.5 58t62 74t24.5 97.5q0 39 -12 70t-29.5 59t-38 55t-38 56.5t-29.5 64.5t-12 80q0 55 19.5 106.5t56 91.5t88.5 64t116 24q73 0 127.5 -31.5t91 -84t54.5 -122t18 -144.5q0 -122 -44.5 -243t-122.5 -226t-185 -184.5t-232 -117.5l-83 204v0z" />
    <glyph glyph-name="quotesinglbase" unicode="&#x201a;" horiz-adv-x="829" 
d="M30 -401l86 47.5t82.5 58t62 75t24.5 98.5q0 39 -12 70t-29.5 59t-38 55t-38 56.5t-29.5 64.5t-12 80q0 55 19.5 106.5t56 91.5t88.5 64t116 24q73 0 127.5 -31.5t91 -84.5t54.5 -122t18 -144q0 -81 -20 -162.5t-57.5 -159t-90 -148t-117 -129.5t-140.5 -103.5
t-159 -69.5l-83 204v0z" />
    <glyph glyph-name="quotedblleft" unicode="&#x201c;" horiz-adv-x="1558" 
d="M769 2221l-86 -48t-82.5 -58t-62 -75t-24.5 -98q0 -39 11.5 -70t29.5 -59t38 -54.5t38 -56.5t29.5 -65t11.5 -79q0 -55 -19.5 -106.5t-56 -91.5t-88 -64t-115.5 -24q-73 0 -127.5 31.5t-91 84t-54.5 121.5t-18 144q0 81 20 162.5t57 159t89.5 148t117.5 129t140.5 103
t159.5 70.5zM1474 2221l-86 -48t-82.5 -58t-61.5 -75t-24 -98q0 -39 11.5 -70t29.5 -59t38 -54.5t38 -56.5t29.5 -65t11.5 -79q0 -55 -19.5 -106.5t-56 -91.5t-88.5 -64t-116 -24q-73 0 -127.5 31.5t-91 84t-54.5 121.5t-18 144q0 81 20 162.5t57 159t89.5 148t117.5 129
t140.5 103t159.5 70.5z" />
    <glyph glyph-name="quotedblright" unicode="&#x201d;" horiz-adv-x="1561" 
d="M101 1476l86 48.5t82.5 58t62 74t24.5 97.5q0 39 -12 70t-29.5 59t-38 55t-38 56.5t-29.5 64.5t-12 80q0 55 19.5 106.5t56 91.5t88.5 64t116 24q73 0 127.5 -31.5t91 -84t54.5 -122t18 -144.5q0 -121 -44.5 -242.5t-122.5 -226.5t-185 -184.5t-232 -117.5zM806 1476
l86 48.5t82.5 58t62 74t24.5 97.5q0 39 -12 70t-29.5 59t-38 55t-38 56.5t-29.5 64.5t-12 80q0 55 19.5 106.5t56 91.5t88 64t115.5 24q73 0 128 -31.5t91.5 -84t54.5 -122t18 -144.5q0 -81 -20 -162.5t-57 -158.5t-89.5 -147.5t-117.5 -129.5t-141 -103.5t-159 -69.5z" />
    <glyph glyph-name="quotedblbase" unicode="&#x201e;" horiz-adv-x="1534" 
d="M30 -401l86 47.5t82.5 58t62 75t24.5 98.5q0 39 -12 70t-29.5 59t-38 55t-38 56.5t-29.5 64.5t-12 80q0 55 19.5 106.5t56 91.5t88.5 64t116 24q73 0 127.5 -31.5t91 -84.5t54.5 -122t18 -144q0 -81 -20 -162.5t-57.5 -159t-90 -148t-117 -129.5t-140.5 -103.5
t-159 -69.5zM736 -401l85.5 47.5t82 58.5t62 75t24.5 98q0 39 -11.5 70t-29.5 59t-38 55t-38 56.5t-29.5 64.5t-11.5 80q0 55 19.5 106.5t55.5 91.5t87.5 64t116.5 24q73 0 128 -31.5t91 -84.5t54 -122t18 -144q0 -81 -20 -162.5t-57 -159t-89.5 -148t-117.5 -129.5
t-141 -103.5t-159 -69.5z" />
    <glyph glyph-name="dagger" unicode="&#x2020;" horiz-adv-x="1789" 
d="M642 1375h-551v436h551v561h498v-561h558v-436h-558v-1799h-498v1799z" />
    <glyph glyph-name="daggerdbl" unicode="&#x2021;" horiz-adv-x="1824" 
d="M661 2372h496v-486h555v-439h-555v-379h555v-433h-555v-1059h-496v1059h-549v433h549v379h-549v439h549v486z" />
    <glyph glyph-name="bullet" unicode="&#x2022;" horiz-adv-x="1441" 
d="M720 563q-114 0 -214 43t-175 118t-118 175t-43 214t43 214t118 175t175 118t214 43t214 -43t175 -118t118 -175t43 -214t-43 -214t-118 -175t-175 -118t-214 -43z" />
    <glyph glyph-name="ellipsis" unicode="&#x2026;" horiz-adv-x="2885" 
d="M421 -33q-62 0 -116.5 24t-95 65t-64 97t-23.5 119t23.5 119t64 97.5t95 65.5t116.5 24t116.5 -24t95 -65.5t64 -97.5t23.5 -119t-23.5 -119t-64 -97t-95 -65t-116.5 -24zM1443 -33q-62 0 -116.5 24t-95 65t-64 97t-23.5 119t23.5 119t64 97.5t95 65.5t116.5 24
t116.5 -24t95 -65.5t64 -97.5t23.5 -119t-23.5 -119t-64 -97t-95 -65t-116.5 -24zM2464 -33q-62 0 -116.5 24t-95 65t-64 97t-23.5 119t23.5 119t64 97.5t95 65.5t116.5 24t116.5 -24t95 -65.5t64 -97.5t23.5 -119t-23.5 -119t-64 -97t-95 -65t-116.5 -24z" />
    <glyph glyph-name="perthousand" unicode="&#x2030;" horiz-adv-x="3841" 
d="M599 952q-119 0 -212 45.5t-157.5 133t-98.5 216t-34 294.5t34 295.5t98.5 218t157.5 134.5t212 46t212 -46t157.5 -134.5t98 -217.5t33.5 -295t-33.5 -294.5t-98 -216.5t-157.5 -133.5t-212 -45.5zM599 1251q76 0 117.5 100.5t41.5 295.5q0 188 -40.5 287.5t-118.5 99.5
q-79 0 -119 -99.5t-40 -286.5q0 -195 41 -296t118 -101zM2096 -17q-119 0 -212.5 45.5t-158 133t-98.5 216t-34 294.5t34 295.5t99 218t158 134.5t212 46q118 0 211.5 -46t157.5 -134.5t98 -218t34 -295.5q0 -165 -34 -293.5t-98 -216.5t-157.5 -133.5t-211.5 -45.5z
M2096 282q76 0 117 100.5t41 295.5q0 188 -40 287.5t-118 99.5q-79 0 -119 -99.5t-40 -286.5q0 -195 41.5 -296t117.5 -101zM3244 -17q-119 0 -212 45.5t-157.5 133t-98.5 216t-34 294.5t34 295.5t98.5 218t157.5 134.5t212 46q118 0 211.5 -46t158 -134.5t98.5 -218
t34 -295.5q0 -165 -34 -293.5t-98.5 -216.5t-157.5 -133.5t-212 -45.5zM3239 282q76 0 117.5 100.5t41.5 295.5q0 188 -40 287.5t-119 99.5t-119 -99.5t-40 -286.5q0 -195 41.5 -296t117.5 -101zM1820 2384h340l-1287 -2450h-339z" />
    <glyph glyph-name="guilsinglleft" unicode="&#x2039;" horiz-adv-x="1101" 
d="M94 848l459 693h443l-417 -693l417 -693h-443z" />
    <glyph glyph-name="guilsinglright" unicode="&#x203a;" horiz-adv-x="1101" 
d="M522 848l-417 693h443l459 -693l-459 -693h-444z" />
    <glyph glyph-name="Euro" unicode="&#x20ac;" horiz-adv-x="2046" 
d="M1712 1645q-41 37 -87 69t-96.5 56t-105 37.5t-112.5 13.5q-80 0 -147.5 -26.5t-121.5 -73.5t-94.5 -112.5t-67.5 -144.5h665l-72 -251h-642q-3 -44 -3 -87q0 -45 3 -87h595l-71 -251h-475q27 -77 67 -142t94 -112t122 -73t151 -26q60 0 115.5 13.5t105.5 37t94.5 55
t83.5 67.5l214 -344q-60 -69 -139.5 -124t-170 -93.5t-188 -59t-193.5 -20.5q-166 0 -311 60t-260.5 169t-197 259.5t-120.5 332.5h-255l73 251h150q-1 19 -1.5 37t-0.5 38q0 49 3 99h-210l73 251h174q42 181 126 331.5t199.5 258.5t259.5 168t306 60q94 0 188 -20.5
t182 -59t167 -94.5t142 -127z" />
    <glyph glyph-name="trademark" unicode="&#x2122;" horiz-adv-x="2942" 
d="M1710 2318l320 -890l314 890h385v-1398h-290v876h-2l-313 -876h-198l-311 876h-2v-876h-290v1398h387zM1142 2052h-377v-1132h-290v1132h-378v266h1045v-266z" />
  </font>
</defs>
</svg>
